<svg width="499" height="394" viewBox="0 0 499 394" fill="none" xmlns="http://www.w3.org/2000/svg">
<mask id="mask0_236_3771" style="mask-type:luminance" maskUnits="userSpaceOnUse" x="109" y="37" width="387" height="322">
<path fill-rule="evenodd" clip-rule="evenodd" d="M242.972 134.057C242.972 134.057 283.935 128.402 289.028 106.23C294.121 84.058 331.555 17.2523 413.559 42.868C511.862 73.5815 452.796 158.209 440.856 171.88C428.916 185.551 422.943 238.011 469.856 254.641C516.769 271.271 503.955 365.949 383.058 358.282C262.162 350.615 276.232 271.33 207.577 270.876C138.923 270.423 89.8709 203.038 118.02 147.814C146.168 92.5905 230.18 140.564 242.972 134.057Z" fill="white"/>
</mask>
<g mask="url(#mask0_236_3771)">
<path d="M242.975 134.056C242.975 134.056 283.938 128.401 289.031 106.229C294.124 84.057 331.558 17.2514 413.562 42.8671C511.865 73.5806 452.799 158.208 440.859 171.879C428.918 185.55 422.946 238.01 469.859 254.64C516.772 271.27 503.958 365.948 383.061 358.281C262.165 350.614 276.235 271.329 207.58 270.876C138.926 270.422 89.8739 203.037 118.023 147.813C146.171 92.5896 230.183 140.563 242.975 134.056Z" fill="#8CA4B3"/>
<g opacity="0.37">
<path d="M465.381 293.382C466.193 292.85 467.282 293.077 467.813 293.888L468.108 294.338C468.64 295.15 468.413 296.239 467.601 296.77L458.786 302.545C457.975 303.077 456.886 302.85 456.354 302.038L456.059 301.589C455.528 300.777 455.755 299.688 456.566 299.157L465.381 293.382Z" fill="white"/>
<path d="M437.164 317.083C437.019 316.123 437.678 315.228 438.637 315.082L439.169 315.001C440.128 314.855 441.024 315.515 441.169 316.474L442.752 326.893C442.898 327.852 442.239 328.748 441.279 328.893L440.748 328.974C439.789 329.12 438.893 328.46 438.747 327.501L437.164 317.083Z" fill="white"/>
<path d="M453.657 262.239C454.26 261.479 455.365 261.351 456.125 261.953L456.546 262.287C457.307 262.89 457.435 263.995 456.832 264.755L450.288 273.015C449.685 273.775 448.58 273.903 447.82 273.301L447.399 272.967C446.638 272.365 446.51 271.26 447.113 270.499L453.657 262.239Z" fill="white"/>
<path d="M488.602 301.36C488.456 300.401 489.116 299.505 490.075 299.359L490.606 299.278C491.565 299.133 492.461 299.792 492.607 300.751L494.19 311.17C494.336 312.129 493.676 313.025 492.717 313.171L492.186 313.251C491.226 313.397 490.331 312.738 490.185 311.778L488.602 301.36Z" fill="white"/>
<path d="M440.005 350.712C440.659 349.996 441.77 349.946 442.487 350.6L442.883 350.962C443.6 351.617 443.65 352.728 442.996 353.444L435.888 361.225C435.234 361.941 434.123 361.992 433.406 361.337L433.01 360.975C432.293 360.32 432.243 359.209 432.897 358.493L440.005 350.712Z" fill="white"/>
<path d="M479.216 334.41C479.392 333.456 480.309 332.826 481.263 333.002L481.791 333.1C482.745 333.276 483.376 334.193 483.199 335.147L481.282 345.509C481.106 346.463 480.189 347.094 479.235 346.917L478.707 346.819C477.753 346.643 477.122 345.726 477.299 344.772L479.216 334.41Z" fill="white"/>
<path d="M406.474 334.406C406.651 333.452 407.567 332.822 408.521 332.998L409.05 333.096C410.004 333.272 410.634 334.189 410.458 335.143L408.541 345.505C408.365 346.459 407.448 347.09 406.494 346.913L405.966 346.816C405.011 346.639 404.381 345.723 404.558 344.769L406.474 334.406Z" fill="white"/>
<path d="M424.84 280.244C424.198 279.516 424.267 278.406 424.995 277.764L425.398 277.408C426.125 276.766 427.235 276.835 427.877 277.563L434.852 285.463C435.494 286.19 435.425 287.3 434.698 287.942L434.295 288.298C433.567 288.94 432.457 288.871 431.815 288.144L424.84 280.244Z" fill="white"/>
<path d="M205.45 217.224C206.262 216.693 207.351 216.92 207.882 217.732L208.186 218.195C208.717 219.007 208.49 220.095 207.678 220.627L198.814 226.431C198.003 226.962 196.914 226.735 196.382 225.923L196.079 225.46C195.547 224.648 195.775 223.559 196.586 223.028L205.45 217.224Z" fill="white"/>
<path d="M177.689 240.229C177.543 239.27 178.202 238.374 179.162 238.228L179.693 238.148C180.652 238.002 181.548 238.661 181.694 239.621L183.277 250.039C183.423 250.998 182.763 251.894 181.804 252.04L181.273 252.121C180.313 252.266 179.418 251.607 179.272 250.648L177.689 240.229Z" fill="white"/>
<path d="M194.165 185.409C194.767 184.649 195.872 184.521 196.633 185.123L197.054 185.457C197.815 186.059 197.943 187.164 197.34 187.925L190.796 196.185C190.193 196.945 189.088 197.073 188.328 196.471L187.907 196.137C187.146 195.534 187.018 194.429 187.621 193.669L194.165 185.409Z" fill="white"/>
<path d="M229.115 224.507C228.97 223.548 229.629 222.652 230.588 222.507L231.12 222.426C232.079 222.28 232.975 222.94 233.121 223.899L234.704 234.317C234.849 235.277 234.19 236.172 233.231 236.318L232.699 236.399C231.74 236.545 230.844 235.885 230.699 234.926L229.115 224.507Z" fill="white"/>
<path d="M180.527 273.869C181.181 273.153 182.293 273.103 183.009 273.757L183.406 274.12C184.122 274.774 184.172 275.885 183.518 276.602L176.411 284.382C175.757 285.099 174.645 285.149 173.929 284.494L173.532 284.132C172.816 283.478 172.765 282.366 173.42 281.65L180.527 273.869Z" fill="white"/>
<path d="M219.743 257.555C219.919 256.601 220.836 255.97 221.79 256.147L222.318 256.244C223.273 256.421 223.903 257.337 223.726 258.292L221.81 268.654C221.633 269.608 220.717 270.238 219.763 270.062L219.234 269.964C218.28 269.788 217.65 268.871 217.826 267.917L219.743 257.555Z" fill="white"/>
<path d="M147.005 257.551C147.181 256.597 148.098 255.966 149.052 256.143L149.58 256.241C150.534 256.417 151.165 257.334 150.988 258.288L149.071 268.65C148.895 269.604 147.978 270.234 147.024 270.058L146.496 269.96C145.542 269.784 144.911 268.867 145.088 267.913L147.005 257.551Z" fill="white"/>
<path d="M165.36 203.41C164.718 202.682 164.787 201.572 165.514 200.93L165.917 200.574C166.644 199.932 167.755 200.001 168.397 200.729L175.371 208.629C176.013 209.356 175.944 210.466 175.217 211.108L174.814 211.464C174.087 212.106 172.977 212.037 172.334 211.31L165.36 203.41Z" fill="white"/>
<path d="M151.688 125.453C152.499 124.921 153.588 125.148 154.12 125.96L154.414 126.409C154.946 127.221 154.719 128.31 153.908 128.842L145.093 134.616C144.281 135.148 143.192 134.921 142.661 134.11L142.366 133.66C141.834 132.849 142.061 131.76 142.873 131.228L151.688 125.453Z" fill="white"/>
<path d="M123.479 149.293C123.334 148.333 123.994 147.438 124.953 147.292L125.489 147.211C126.449 147.066 127.344 147.726 127.49 148.685L129.071 159.122C129.216 160.082 128.556 160.977 127.597 161.122L127.061 161.204C126.101 161.349 125.206 160.689 125.06 159.73L123.479 149.293Z" fill="white"/>
<path d="M139.95 94.3174C140.553 93.5569 141.658 93.4289 142.418 94.0314L142.839 94.3652C143.6 94.9677 143.728 96.0727 143.125 96.8332L136.581 105.093C135.978 105.853 134.873 105.981 134.113 105.379L133.692 105.045C132.931 104.443 132.803 103.338 133.406 102.577L139.95 94.3174Z" fill="white"/>
<path d="M174.981 133.561C174.836 132.601 175.495 131.706 176.455 131.561L176.991 131.479C177.951 131.334 178.846 131.994 178.991 132.953L180.573 143.39C180.718 144.35 180.058 145.245 179.099 145.39L178.563 145.472C177.603 145.617 176.708 144.957 176.562 143.998L174.981 133.561Z" fill="white"/>
<path d="M126.32 182.776C126.974 182.059 128.086 182.009 128.802 182.663L129.199 183.026C129.915 183.68 129.965 184.791 129.311 185.508L122.204 193.288C121.549 194.005 120.438 194.055 119.722 193.401L119.325 193.038C118.609 192.384 118.558 191.273 119.213 190.556L126.32 182.776Z" fill="white"/>
<path d="M165.542 166.464C165.718 165.51 166.635 164.879 167.589 165.056L168.117 165.154C169.071 165.33 169.702 166.247 169.525 167.201L167.608 177.563C167.432 178.517 166.515 179.147 165.561 178.971L165.033 178.873C164.079 178.697 163.448 177.78 163.625 176.826L165.542 166.464Z" fill="white"/>
<path d="M111.153 112.322C110.511 111.595 110.58 110.484 111.307 109.842L111.71 109.486C112.437 108.844 113.548 108.913 114.19 109.641L121.164 117.541C121.806 118.268 121.737 119.378 121.01 120.02L120.607 120.376C119.88 121.018 118.77 120.949 118.127 120.222L111.153 112.322Z" fill="white"/>
<path d="M151.466 238.309C152.436 238.326 153.209 239.126 153.192 240.096L153.183 240.634C153.166 241.604 152.366 242.377 151.395 242.36L140.859 242.176C139.889 242.159 139.116 241.359 139.133 240.388L139.142 239.851C139.159 238.881 139.96 238.108 140.93 238.125L151.466 238.309Z" fill="white"/>
<path d="M114.821 242.021C115.24 241.146 116.289 240.776 117.165 241.195L117.649 241.427C118.524 241.847 118.894 242.896 118.475 243.771L113.923 253.275C113.504 254.15 112.455 254.52 111.58 254.101L111.095 253.869C110.22 253.45 109.85 252.4 110.27 251.525L114.821 242.021Z" fill="white"/>
<path d="M159.259 205.942C160.185 205.653 161.17 206.169 161.46 207.095L161.62 207.608C161.91 208.534 161.394 209.519 160.468 209.809L150.411 212.955C149.485 213.244 148.499 212.729 148.21 211.803L148.049 211.29C147.759 210.364 148.275 209.378 149.201 209.088L159.259 205.942Z" fill="white"/>
<path d="M166.182 257.95C166.601 257.075 167.65 256.705 168.525 257.124L169.01 257.356C169.885 257.775 170.254 258.824 169.835 259.699L165.284 269.204C164.864 270.079 163.815 270.449 162.94 270.03L162.456 269.797C161.58 269.378 161.211 268.329 161.63 267.454L166.182 257.95Z" fill="white"/>
<path d="M139.846 280.004C140.529 279.315 141.641 279.309 142.331 279.992L142.712 280.37C143.402 281.052 143.408 282.165 142.725 282.854L135.311 290.344C134.629 291.033 133.516 291.039 132.827 290.356L132.445 289.978C131.755 289.295 131.75 288.183 132.432 287.494L139.846 280.004Z" fill="white"/>
<path d="M126.067 204.214C125.94 203.252 126.618 202.369 127.58 202.243L128.107 202.174C129.069 202.047 129.951 202.725 130.077 203.687L131.446 214.114C131.573 215.076 130.895 215.959 129.933 216.085L129.406 216.154C128.444 216.28 127.562 215.603 127.436 214.641L126.067 204.214Z" fill="white"/>
<path d="M305.026 166.55C305.837 166.018 306.926 166.245 307.458 167.056L307.752 167.506C308.284 168.318 308.057 169.407 307.246 169.938L298.431 175.713C297.619 176.245 296.53 176.018 295.998 175.206L295.704 174.757C295.172 173.945 295.399 172.856 296.211 172.325L305.026 166.55Z" fill="white"/>
<path d="M276.82 190.239C276.674 189.28 277.333 188.384 278.293 188.238L278.824 188.157C279.783 188.012 280.679 188.671 280.825 189.63L282.408 200.049C282.553 201.008 281.894 201.904 280.935 202.05L280.403 202.13C279.444 202.276 278.548 201.617 278.403 200.657L276.82 190.239Z" fill="white"/>
<path d="M293.296 135.407C293.898 134.646 295.003 134.518 295.764 135.121L296.185 135.455C296.945 136.057 297.073 137.162 296.471 137.923L289.927 146.182C289.324 146.943 288.219 147.071 287.459 146.468L287.037 146.135C286.277 145.532 286.149 144.427 286.751 143.667L293.296 135.407Z" fill="white"/>
<path d="M328.246 174.518C328.101 173.559 328.76 172.663 329.719 172.517L330.251 172.437C331.21 172.291 332.106 172.95 332.251 173.91L333.834 184.328C333.98 185.287 333.321 186.183 332.362 186.329L331.83 186.41C330.871 186.555 329.975 185.896 329.829 184.937L328.246 174.518Z" fill="white"/>
<path d="M279.658 223.875C280.312 223.159 281.424 223.109 282.14 223.763L282.537 224.125C283.253 224.78 283.303 225.891 282.649 226.607L275.542 234.388C274.887 235.104 273.776 235.155 273.06 234.5L272.663 234.138C271.947 233.484 271.896 232.372 272.551 231.656L279.658 223.875Z" fill="white"/>
<path d="M318.876 207.565C319.052 206.611 319.969 205.981 320.923 206.157L321.451 206.255C322.405 206.432 323.036 207.348 322.859 208.302L320.942 218.665C320.766 219.619 319.849 220.249 318.895 220.072L318.367 219.975C317.413 219.798 316.782 218.882 316.959 217.928L318.876 207.565Z" fill="white"/>
<path d="M246.131 207.561C246.307 206.607 247.224 205.977 248.178 206.154L248.706 206.251C249.66 206.428 250.291 207.344 250.114 208.298L248.197 218.661C248.021 219.615 247.104 220.245 246.15 220.069L245.622 219.971C244.668 219.794 244.037 218.878 244.214 217.924L246.131 207.561Z" fill="white"/>
<path d="M264.487 153.411C263.845 152.684 263.914 151.574 264.641 150.932L265.044 150.576C265.771 149.934 266.882 150.003 267.524 150.73L274.498 158.63C275.14 159.357 275.071 160.468 274.344 161.11L273.941 161.465C273.214 162.108 272.104 162.038 271.461 161.311L264.487 153.411Z" fill="white"/>
<path d="M352.227 337.154C352.83 336.394 353.935 336.266 354.695 336.868L355.117 337.202C355.877 337.805 356.005 338.91 355.403 339.67L348.858 347.93C348.256 348.69 347.151 348.818 346.39 348.216L345.969 347.882C345.209 347.28 345.081 346.175 345.683 345.414L352.227 337.154Z" fill="white"/>
<path d="M323.404 355.155C322.762 354.428 322.831 353.317 323.558 352.675L323.961 352.32C324.688 351.677 325.799 351.746 326.441 352.474L333.415 360.374C334.057 361.101 333.988 362.211 333.261 362.853L332.858 363.209C332.131 363.851 331.021 363.782 330.378 363.055L323.404 355.155Z" fill="white"/>
<path d="M456.462 194.836C457.355 195.214 457.772 196.246 457.393 197.139L457.185 197.631C456.806 198.524 455.775 198.941 454.882 198.563L445.189 194.454C444.296 194.075 443.879 193.044 444.257 192.151L444.466 191.659C444.845 190.765 445.876 190.348 446.769 190.727L456.462 194.836Z" fill="white"/>
<path d="M420.637 184.43C421.354 183.776 422.465 183.827 423.119 184.543L423.481 184.94C424.135 185.657 424.084 186.768 423.367 187.422L415.583 194.525C414.866 195.179 413.755 195.129 413.101 194.412L412.739 194.015C412.085 193.298 412.136 192.187 412.852 191.533L420.637 184.43Z" fill="white"/>
<path d="M475.344 167.662C476.311 167.741 477.031 168.589 476.952 169.556L476.908 170.092C476.83 171.059 475.982 171.779 475.015 171.7L464.511 170.844C463.544 170.765 462.824 169.917 462.903 168.95L462.947 168.415C463.026 167.448 463.873 166.727 464.84 166.806L475.344 167.662Z" fill="white"/>
<path d="M462.28 218.462C462.997 217.808 464.108 217.859 464.762 218.576L465.125 218.973C465.779 219.69 465.728 220.801 465.011 221.455L457.227 228.558C456.51 229.212 455.399 229.161 454.745 228.445L454.382 228.048C453.728 227.331 453.779 226.22 454.496 225.566L462.28 218.462Z" fill="white"/>
<path d="M394.24 205.48C395.199 205.627 395.858 206.523 395.712 207.482L395.631 208.013C395.484 208.972 394.588 209.631 393.629 209.485L383.211 207.896C382.252 207.75 381.593 206.854 381.74 205.895L381.821 205.364C381.967 204.404 382.863 203.745 383.822 203.892L394.24 205.48Z" fill="white"/>
<path d="M429.588 229.036C430.48 228.652 431.513 229.064 431.896 229.956L432.108 230.45C432.491 231.341 432.079 232.374 431.188 232.757L421.506 236.919C420.615 237.302 419.582 236.89 419.199 235.999L418.986 235.505C418.603 234.614 419.015 233.58 419.907 233.197L429.588 229.036Z" fill="white"/>
<path d="M389.185 168.541C390.076 168.158 391.109 168.57 391.493 169.462L391.705 169.955C392.088 170.847 391.676 171.88 390.785 172.263L381.103 176.425C380.212 176.808 379.178 176.396 378.795 175.504L378.583 175.011C378.2 174.119 378.612 173.086 379.503 172.703L389.185 168.541Z" fill="white"/>
<path d="M444.413 153.705C444.661 152.767 445.623 152.208 446.561 152.456L447.08 152.594C448.018 152.842 448.577 153.803 448.329 154.741L445.634 164.929C445.386 165.867 444.424 166.426 443.486 166.178L442.966 166.04C442.029 165.792 441.469 164.831 441.717 163.893L444.413 153.705Z" fill="white"/>
<path d="M440.654 95.3235C441.547 95.703 441.963 96.7346 441.583 97.6275L441.373 98.1221C440.993 99.015 439.962 99.4312 439.069 99.0516L429.371 94.929C428.478 94.5494 428.062 93.5178 428.441 92.6249L428.651 92.1303C429.031 91.2374 430.063 90.8212 430.956 91.2008L440.654 95.3235Z" fill="white"/>
<path d="M405.29 85.0099C406.007 84.3559 407.118 84.4067 407.772 85.1234L408.134 85.5204C408.788 86.2371 408.737 87.3483 408.021 88.0023L400.236 95.1054C399.52 95.7594 398.408 95.7086 397.754 94.9919L397.392 94.5949C396.738 93.8782 396.789 92.767 397.506 92.113L405.29 85.0099Z" fill="white"/>
<path d="M459.997 68.2479C460.964 68.3267 461.684 69.1746 461.605 70.1416L461.562 70.6772C461.483 71.6443 460.635 72.3644 459.668 72.2855L449.165 71.4294C448.198 71.3506 447.478 70.5027 447.556 69.5356L447.6 69C447.679 68.033 448.527 67.3129 449.494 67.3918L459.997 68.2479Z" fill="white"/>
<path d="M446.928 119.047C447.645 118.393 448.756 118.444 449.41 119.161L449.772 119.557C450.426 120.274 450.375 121.385 449.658 122.039L441.874 129.143C441.157 129.797 440.046 129.746 439.392 129.029L439.03 128.632C438.376 127.915 438.427 126.804 439.143 126.15L446.928 119.047Z" fill="white"/>
<path d="M378.891 106.058C379.85 106.205 380.509 107.101 380.363 108.06L380.282 108.591C380.136 109.55 379.24 110.209 378.281 110.063L367.863 108.475C366.904 108.328 366.245 107.432 366.391 106.473L366.472 105.942C366.618 104.983 367.514 104.324 368.474 104.47L378.891 106.058Z" fill="white"/>
<path d="M414.238 129.613C415.129 129.23 416.162 129.642 416.545 130.533L416.758 131.027C417.141 131.919 416.729 132.952 415.837 133.335L406.156 137.497C405.264 137.88 404.231 137.468 403.848 136.576L403.636 136.083C403.253 135.191 403.665 134.158 404.556 133.775L414.238 129.613Z" fill="white"/>
<path d="M373.834 69.1181C374.726 68.7349 375.759 69.1469 376.142 70.0383L376.354 70.5321C376.737 71.4235 376.325 72.4567 375.434 72.8399L365.752 77.0014C364.861 77.3846 363.828 76.9725 363.445 76.0811L363.232 75.5874C362.849 74.696 363.261 73.6628 364.153 73.2796L373.834 69.1181Z" fill="white"/>
<path d="M430.01 55.6784C430.261 54.7412 431.225 54.1851 432.162 54.4363L432.697 54.5799C433.635 54.8311 434.191 55.7944 433.939 56.7316L431.196 66.968C430.945 67.9051 429.981 68.4612 429.044 68.21L428.508 68.0665C427.571 67.8152 427.015 66.8519 427.266 65.9147L430.01 55.6784Z" fill="white"/>
<path d="M274.279 130.171C274.443 131.128 273.801 132.036 272.845 132.2L272.297 132.294C271.341 132.458 270.433 131.816 270.268 130.86L268.474 120.412C268.31 119.456 268.952 118.547 269.908 118.383L270.456 118.289C271.412 118.125 272.32 118.767 272.485 119.723L274.279 130.171Z" fill="white"/>
<path d="M264.32 95.6383C265.259 95.8842 265.82 96.8444 265.574 97.783L265.438 98.3028C265.192 99.2414 264.232 99.803 263.293 99.5571L253.099 96.8865C252.161 96.6406 251.599 95.6804 251.845 94.7418L251.981 94.222C252.227 93.2834 253.187 92.7218 254.126 92.9677L264.32 95.6383Z" fill="white"/>
<path d="M308.135 132.447C308.595 133.302 308.275 134.367 307.421 134.827L306.947 135.082C306.093 135.541 305.028 135.221 304.568 134.367L299.575 125.087C299.115 124.232 299.436 123.167 300.29 122.707L300.763 122.452C301.618 121.993 302.683 122.313 303.143 123.167L308.135 132.447Z" fill="white"/>
<path d="M258.392 149.096C259.331 149.342 259.892 150.302 259.647 151.24L259.51 151.76C259.265 152.699 258.304 153.26 257.366 153.015L247.172 150.344C246.233 150.098 245.672 149.138 245.917 148.199L246.054 147.679C246.299 146.741 247.26 146.179 248.198 146.425L258.392 149.096Z" fill="white"/>
<path d="M232.293 84.9273C232.691 85.8118 232.298 86.8521 231.413 87.2509L230.923 87.4718C230.039 87.8706 228.998 87.4769 228.6 86.5924L224.268 76.9857C223.869 76.1012 224.263 75.0608 225.147 74.662L225.637 74.4411C226.522 74.0423 227.562 74.436 227.961 75.3206L232.293 84.9273Z" fill="white"/>
<path d="M231.411 126.969C232.215 127.511 232.427 128.603 231.885 129.408L231.581 129.857C231.039 130.661 229.947 130.874 229.142 130.331L220.392 124.427C219.588 123.884 219.376 122.793 219.918 121.988L220.222 121.539C220.764 120.734 221.856 120.522 222.661 121.065L231.411 126.969Z" fill="white"/>
<path d="M260.556 60.6023C261.362 61.142 261.578 62.2332 261.038 63.0395L260.739 63.486C260.2 64.2923 259.108 64.5084 258.302 63.9686L249.545 58.1063C248.739 57.5666 248.523 56.4754 249.063 55.6691L249.362 55.2226C249.901 54.4163 250.992 54.2002 251.799 54.74L260.556 60.6023Z" fill="white"/>
<path d="M302.989 98.8811C303.912 98.5795 304.904 99.0826 305.205 100.005L305.372 100.516C305.674 101.438 305.171 102.43 304.249 102.731L294.233 106.007C293.31 106.309 292.318 105.806 292.017 104.883L291.85 104.373C291.548 103.45 292.051 102.458 292.973 102.157L302.989 98.8811Z" fill="white"/>
<path d="M381.616 43.4133C381.18 44.2799 380.124 44.6286 379.257 44.1922L378.777 43.9505C377.911 43.5141 377.562 42.4578 377.998 41.5912L382.738 32.1793C383.175 31.3127 384.231 30.964 385.097 31.4004L385.577 31.6421C386.444 32.0785 386.793 33.1348 386.356 34.0014L381.616 43.4133Z" fill="white"/>
<path d="M407.37 64.5055C407.229 65.4654 406.337 66.1294 405.377 65.9885L404.845 65.9105C403.885 65.7696 403.221 64.8771 403.362 63.9172L404.893 53.4908C405.034 52.5308 405.926 51.8668 406.886 52.0077L407.418 52.0858C408.378 52.2267 409.042 53.1191 408.901 54.0791L407.37 64.5055Z" fill="white"/>
<path d="M357.536 48.1844C358.142 48.9417 358.02 50.0473 357.263 50.6539L356.843 50.9898C356.086 51.5963 354.98 51.474 354.374 50.7167L347.786 42.4913C347.18 41.734 347.302 40.6284 348.059 40.0219L348.479 39.6859C349.236 39.0794 350.342 39.2017 350.948 39.959L357.536 48.1844Z" fill="white"/>
<path d="M423.275 34.4957C424.195 34.8039 424.691 35.7995 424.382 36.7196L424.212 37.2291C423.904 38.1491 422.908 38.6451 421.988 38.3369L411.996 34.9896C411.075 34.6815 410.58 33.6858 410.888 32.7658L411.058 32.2562C411.367 31.3362 412.362 30.8402 413.282 31.1484L423.275 34.4957Z" fill="white"/>
<path d="M394.72 276.132C395.685 276.237 396.381 277.105 396.275 278.07L396.217 278.604C396.111 279.568 395.243 280.264 394.279 280.159L383.803 279.009C382.839 278.904 382.143 278.036 382.249 277.072L382.307 276.537C382.413 275.573 383.281 274.877 384.245 274.983L394.72 276.132Z" fill="white"/>
<path d="M357.934 276.495C358.432 275.662 359.51 275.39 360.343 275.887L360.805 276.162C361.638 276.66 361.91 277.738 361.413 278.571L356.01 287.619C355.513 288.453 354.434 288.725 353.601 288.227L353.14 287.952C352.307 287.454 352.035 286.376 352.532 285.543L357.934 276.495Z" fill="white"/>
<path d="M405.47 244.656C406.418 244.452 407.353 245.056 407.556 246.005L407.669 246.53C407.873 247.479 407.269 248.413 406.32 248.617L396.017 250.829C395.069 251.033 394.134 250.429 393.931 249.48L393.818 248.955C393.614 248.006 394.218 247.072 395.167 246.869L405.47 244.656Z" fill="white"/>
<path d="M407.627 297.057C408.124 296.224 409.203 295.952 410.036 296.449L410.497 296.725C411.33 297.222 411.602 298.301 411.105 299.134L405.703 308.182C405.205 309.015 404.127 309.287 403.294 308.79L402.832 308.514C401.999 308.017 401.727 306.938 402.224 306.105L407.627 297.057Z" fill="white"/>
<path d="M338.728 304.286C339.688 304.149 340.578 304.817 340.715 305.777L340.79 306.309C340.927 307.27 340.26 308.16 339.299 308.296L328.866 309.783C327.906 309.92 327.016 309.252 326.879 308.292L326.803 307.76C326.667 306.799 327.334 305.909 328.295 305.773L338.728 304.286Z" fill="white"/>
<path d="M379.376 316.618C380.119 315.994 381.227 316.09 381.851 316.833L382.197 317.245C382.821 317.988 382.725 319.096 381.982 319.72L373.914 326.499C373.171 327.123 372.063 327.027 371.439 326.284L371.093 325.873C370.469 325.13 370.565 324.022 371.308 323.398L379.376 316.618Z" fill="white"/>
<path d="M323.23 270.359C323.973 269.735 325.081 269.831 325.705 270.574L326.051 270.985C326.675 271.728 326.579 272.836 325.836 273.46L317.768 280.24C317.026 280.864 315.917 280.768 315.293 280.025L314.947 279.613C314.323 278.87 314.419 277.762 315.162 277.138L323.23 270.359Z" fill="white"/>
<path d="M371.787 240.252C371.754 239.282 372.514 238.469 373.483 238.436L374.02 238.418C374.99 238.385 375.803 239.144 375.836 240.114L376.195 250.646C376.228 251.616 375.468 252.429 374.499 252.462L373.961 252.48C372.992 252.513 372.179 251.754 372.146 250.784L371.787 240.252Z" fill="white"/>
<path d="M288.916 289.837C289.88 289.943 290.576 290.81 290.471 291.775L290.412 292.309C290.306 293.273 289.439 293.969 288.474 293.864L277.999 292.715C277.034 292.609 276.338 291.741 276.444 290.777L276.503 290.242C276.608 289.278 277.476 288.582 278.441 288.688L288.916 289.837Z" fill="white"/>
<path d="M252.113 290.204C252.61 289.371 253.689 289.099 254.522 289.596L254.983 289.871C255.817 290.369 256.089 291.447 255.591 292.28L250.189 301.328C249.692 302.162 248.613 302.434 247.78 301.936L247.319 301.661C246.486 301.163 246.213 300.085 246.711 299.252L252.113 290.204Z" fill="white"/>
<path d="M299.654 258.355C300.603 258.151 301.537 258.755 301.741 259.704L301.854 260.229C302.057 261.178 301.454 262.112 300.505 262.316L290.202 264.528C289.253 264.732 288.319 264.128 288.115 263.18L288.002 262.654C287.799 261.706 288.403 260.771 289.351 260.568L299.654 258.355Z" fill="white"/>
<path d="M301.806 310.765C302.304 309.932 303.382 309.66 304.215 310.157L304.677 310.433C305.51 310.93 305.782 312.009 305.285 312.842L299.882 321.89C299.385 322.723 298.306 322.995 297.473 322.498L297.012 322.222C296.179 321.725 295.907 320.646 296.404 319.813L301.806 310.765Z" fill="white"/>
<path d="M232.908 317.989C233.869 317.852 234.758 318.52 234.895 319.48L234.971 320.012C235.108 320.973 234.44 321.863 233.48 322L223.047 323.486C222.086 323.623 221.197 322.955 221.06 321.995L220.984 321.463C220.847 320.502 221.515 319.613 222.476 319.476L232.908 317.989Z" fill="white"/>
<path d="M273.556 330.322C274.299 329.697 275.407 329.794 276.032 330.536L276.377 330.948C277.001 331.691 276.905 332.799 276.162 333.423L268.095 340.202C267.352 340.827 266.244 340.73 265.619 339.988L265.274 339.576C264.649 338.833 264.746 337.725 265.488 337.101L273.556 330.322Z" fill="white"/>
<path d="M217.412 284.071C218.155 283.446 219.263 283.543 219.887 284.285L220.233 284.697C220.857 285.44 220.761 286.548 220.018 287.172L211.95 293.951C211.207 294.576 210.099 294.479 209.475 293.737L209.129 293.325C208.505 292.582 208.601 291.474 209.344 290.85L217.412 284.071Z" fill="white"/>
<path d="M265.974 253.949C265.941 252.979 266.7 252.167 267.67 252.134L268.207 252.115C269.177 252.082 269.99 252.842 270.023 253.811L270.381 264.343C270.414 265.313 269.655 266.126 268.685 266.159L268.148 266.177C267.178 266.21 266.365 265.451 266.332 264.481L265.974 253.949Z" fill="white"/>
</g>
</g>
<path d="M131.908 339.213C131.908 339.213 118.878 323.582 111.748 330.554C104.617 337.525 116.504 349.143 98.6677 347.451C80.8317 345.758 74.6169 349.898 73.4043 357.453C88.9539 357.969 134.308 357.219 134.308 357.219C134.308 357.219 136.613 339.846 131.908 339.213Z" fill="#4A5C68" stroke="#232323" stroke-width="0.554165"/>
<path d="M134.07 334.732C134.07 334.732 144.946 334.519 143.237 324.922C141.529 315.324 161.236 309.783 164.711 320.658C168.187 331.533 157.312 346.459 134.07 334.732V334.732Z" fill="#232323" stroke="#232323" stroke-width="0.554165"/>
<path d="M191.307 316.337C191.307 316.337 200.9 307.17 210.284 315.485C219.669 323.8 206.501 334.036 217.987 333.184C229.474 332.333 235.329 348.405 229.95 357.654C223.289 357.078 182.371 357.654 182.371 357.654C182.371 357.654 182.348 316.976 191.307 316.337Z" fill="#232323" stroke="#232323" stroke-width="0.554165"/>
<path d="M107.863 357.107C107.863 357.107 123.674 357.107 122.78 348.086C118.602 335.266 132.924 333.132 143.663 336.337C154.402 339.542 167.601 337.962 165.382 325.015C163.163 312.067 187.032 306.987 197.27 318.137C207.508 329.287 181.846 343.383 208.992 340.382C236.138 337.381 216.454 357.634 216.454 357.634L107.863 357.107Z" fill="#587987" stroke="#232323" stroke-width="0.554165"/>
<path d="M445.009 357.634H0.759766" stroke="#232323" stroke-width="0.554165"/>
<path d="M238.827 337.438C238.827 337.438 230.915 302.034 216.089 292.124" stroke="#232323" stroke-width="0.554165"/>
<path d="M152.096 295.2C153.985 290.87 154.686 286.996 153.66 286.549C152.635 286.102 150.272 289.25 148.383 293.58C146.494 297.911 145.793 301.784 146.818 302.232C147.844 302.679 150.207 299.531 152.096 295.2Z" fill="#587987" stroke="#232323" stroke-width="0.554165"/>
<path d="M159.883 315.482C161.772 311.151 162.473 307.277 161.447 306.83C160.422 306.383 158.059 309.531 156.17 313.862C154.281 318.192 153.58 322.066 154.606 322.513C155.631 322.96 157.994 319.812 159.883 315.482Z" fill="#587987" stroke="#232323" stroke-width="0.554165"/>
<path d="M149.918 310.932C149.995 309.816 146.237 308.646 141.523 308.319C136.81 307.991 132.926 308.631 132.848 309.747C132.771 310.863 136.529 312.033 141.243 312.36C145.956 312.687 149.84 312.048 149.918 310.932Z" fill="#587987" stroke="#232323" stroke-width="0.554165"/>
<path d="M134.821 295.584C138.306 295.202 141.058 294.223 140.968 293.397C140.877 292.571 137.979 292.211 134.493 292.593C131.008 292.975 128.256 293.954 128.346 294.78C128.437 295.606 131.336 295.966 134.821 295.584Z" fill="#587987" stroke="#232323" stroke-width="0.554165"/>
<path d="M142.103 284.352C142.786 280.913 142.679 277.994 141.864 277.832C141.05 277.67 139.835 280.327 139.151 283.766C138.468 287.204 138.575 290.123 139.39 290.285C140.205 290.447 141.419 287.791 142.103 284.352Z" fill="#587987" stroke="#232323" stroke-width="0.554165"/>
<path d="M136.375 287.63C136.793 287.034 135.089 285.118 132.568 283.351C130.047 281.584 127.665 280.635 127.247 281.232C126.829 281.828 128.534 283.744 131.054 285.511C133.575 287.278 135.957 288.227 136.375 287.63Z" fill="#587987" stroke="#232323" stroke-width="0.554165"/>
<path d="M227.948 70.1945C244.471 68.0809 257.553 63.9284 257.168 60.9198C256.783 57.9112 243.077 57.1857 226.555 59.2993C210.032 61.413 196.95 65.5654 197.335 68.5741C197.719 71.5827 211.426 72.3082 227.948 70.1945Z" fill="#232323" stroke="#232323" stroke-width="0.554165"/>
<path d="M252.238 264.177C264.21 262.646 273.69 259.637 273.411 257.458C273.132 255.278 263.2 254.753 251.228 256.284C239.255 257.816 229.776 260.824 230.055 263.004C230.333 265.183 240.265 265.709 252.238 264.177Z" fill="#232323" stroke="#232323" stroke-width="0.554165"/>
<path d="M330.287 245.981C332.489 246.488 334.601 247.073 336.631 247.712C343.817 237.394 386.797 203.309 382.801 195.044C378.324 185.768 350.655 175.056 347.139 187.368C347.139 187.368 343.727 191.473 334.505 193.34C326.435 194.972 301.88 199.34 292.536 220.56C313.843 221.407 330.287 245.981 330.287 245.981Z" fill="#4A5C68"/>
<path d="M362.006 189.856C362.006 189.856 342.068 198.516 323.254 227.884" stroke="white" stroke-width="0.393025" stroke-linecap="round"/>
<path d="M353.638 187.989C349.658 192.347 344.543 195.51 338.866 197.124C328.87 199.843 316.028 204.044 309.113 218.422" stroke="white" stroke-width="0.393025" stroke-linecap="round"/>
<path fill-rule="evenodd" clip-rule="evenodd" d="M330.286 245.981C332.488 246.489 334.6 247.074 336.63 247.712C343.816 237.395 386.796 203.31 382.8 195.045C378.323 185.769 350.654 175.057 347.138 187.368C347.138 187.368 343.726 191.474 334.505 193.341C326.434 194.972 301.879 199.34 292.535 220.561C313.842 221.408 330.286 245.981 330.286 245.981Z" stroke="#232323" stroke-width="0.393025"/>
<path d="M365.818 299.936C357.403 285.563 338.507 253.472 335.784 250.381C335.39 249.928 335.734 249.022 336.636 247.712C334.601 247.073 332.49 246.489 330.292 245.981C330.292 245.981 313.852 221.408 292.541 220.561C291.128 223.806 290.13 227.216 289.569 230.711C284.611 260.776 314.668 279.772 357.743 304.436C359.029 305.341 360.109 306.506 360.915 307.857L365.818 299.936Z" fill="#D8D8D8" stroke="#232323" stroke-width="0.393025"/>
<path d="M379.015 196.706C371.448 191.55 358.398 196.861 352.362 200.748C346.177 204.736 340.105 201.6 332.637 205.438C327.39 208.135 324.322 215.249 328.559 224.42C332.207 232.273 326.017 231.294 322.759 236.9C325.495 239.719 328.006 242.749 330.267 245.962C332.469 246.47 334.581 247.054 336.611 247.693C341.464 240.719 362.653 222.884 374.674 209.512C376.233 199.534 383.538 199.788 379.015 196.706Z" fill="#232323"/>
<path d="M371.674 190.087C349.312 198.488 336.978 220.932 330.285 245.981C335.27 247.522 355.076 254.378 364.13 268.692C364.48 268.201 364.905 267.769 365.39 267.41C395.541 244.785 409.344 211.815 409.344 211.815C410.214 197.904 404.133 176.869 371.674 190.087Z" fill="#4A5C68"/>
<path d="M373.064 194.668C373.064 194.668 350.204 203.241 337.797 242.166" stroke="white" stroke-width="0.554165" stroke-linecap="round"/>
<path d="M380.474 200.056C380.474 200.056 355.579 213.731 346.72 245.981" stroke="white" stroke-width="0.554165" stroke-linecap="round"/>
<path d="M390.044 205.438C390.044 205.438 361.419 221.846 355.429 251.912" stroke="white" stroke-width="0.554165" stroke-linecap="round"/>
<path d="M396.392 213.278C396.392 213.278 369.376 236.936 360.775 256.702" stroke="white" stroke-width="0.554165" stroke-linecap="round"/>
<path d="M364.139 261.9C364.139 261.9 399.442 222.292 399.936 221.141" stroke="white" stroke-width="0.554165" stroke-linecap="round"/>
<path d="M373.783 189.261C373.09 189.519 372.392 189.791 371.676 190.081C370.367 190.575 369.098 191.119 367.856 191.704C370.158 192.818 393.418 204.604 399.997 229.074C406.341 219.05 409.364 211.809 409.364 211.809C409.617 207.658 409.255 202.878 407.76 198.56C398.271 193.793 382.529 189.075 373.783 189.261Z" fill="#232323"/>
<path d="M361.05 326.023C367.448 313.869 369.845 306.832 369.845 306.832C369.845 306.832 368.278 304.141 365.817 299.936L360.928 307.856C363.234 311.694 363.85 317.626 361.05 326.023Z" fill="#232323" stroke="#232323" stroke-width="0.554165"/>
<path d="M357.867 197.913C343.616 207.361 334.381 230.643 330.285 245.981C335.27 247.522 355.076 254.378 364.13 268.692C364.48 268.201 364.905 267.769 365.39 267.41C395.541 244.785 409.344 211.815 409.344 211.815C410.195 197.904 404.114 176.869 371.656 190.087" stroke="#232323" stroke-width="0.554165" stroke-linecap="round"/>
<path d="M367.764 117.508C363.599 118.348 359.494 119.461 355.475 120.838C355.475 120.838 337.182 125.646 336.688 139.666C336.343 149.508 332.157 161.118 327.199 161.131C329.619 165.916 332.709 175.319 328.559 187.472C337.911 186.742 344.382 182.882 348.447 177.929C348.048 181.364 347.54 184.576 347.119 187.377C369.508 187.857 405.012 208.488 408.211 214.248C439.572 149.626 367.764 117.508 367.764 117.508Z" fill="#606B6E"/>
<g opacity="0.6">
<path d="M386.345 142.911C386.345 142.911 381.41 149.568 386.345 153.197C391.279 156.827 391.279 136.245 386.345 142.911Z" fill="white"/>
<path d="M416.133 181.165C413.767 180.336 411.348 180.291 411.266 183.53C411.108 189.929 404.709 190.065 401.034 187.609C397.359 185.153 390.726 187.885 393.834 196.671C396.63 204.556 407.428 202.014 410.881 208.267C414.814 198.42 416.337 189.394 416.133 181.165Z" fill="white"/>
<path d="M379.764 176.334C379.764 176.334 372.097 186.96 362.577 180.689C353.057 174.418 356.364 183.453 352.418 180.689C348.471 177.925 352.345 165.282 356.949 167.861C361.553 170.439 366.796 174.418 371.685 169.696C376.574 164.974 383.122 171.377 379.764 176.334Z" fill="white"/>
<path d="M362.161 147.388C362.161 147.388 367.173 143.228 366.031 140.029C364.889 136.83 366.394 133.15 369.846 134.138C373.299 135.126 374.677 144.374 369.846 147.41C365.016 150.446 359.257 150.628 362.161 147.388Z" fill="white"/>
<path d="M382.992 197.913C383.446 195.417 383.088 193.074 382.213 194.016C380.342 196.024 378.806 189.771 374.646 189.771C372.747 189.771 371.447 191.157 370.595 192.657C374.822 194.22 379.014 196.019 382.992 197.913Z" fill="white"/>
<path d="M335.595 148.027C334.689 151.992 333.279 155.635 331.594 158.064C333.406 159.233 335.618 161.757 338.844 160.212C342.754 158.336 338.169 151.43 335.595 148.027Z" fill="white"/>
<path d="M345.359 181.06C345.1 177.476 336.677 179.52 334.823 174.263C333.917 171.622 332.104 171.504 330.419 172.183C330.924 177.345 330.296 182.555 328.579 187.45C335.834 186.897 341.353 184.441 345.359 181.06Z" fill="white"/>
<path d="M343.297 164.915C343.297 164.915 336.451 165.459 337.796 168.499C339.142 171.54 344.652 169.913 341.974 173.126C339.296 176.339 352.256 171.408 343.297 164.915Z" fill="white"/>
<path d="M388.815 181.822C388.815 181.822 393.197 178.324 397.198 180.689C401.199 183.054 403.659 177.127 399.151 174.255C394.642 171.382 380.749 181.07 388.815 181.822Z" fill="white"/>
</g>
<path d="M327.201 161.123C326.245 161.123 325.262 160.706 324.269 159.763C317.151 152.966 289.673 124.21 287.325 126.127C286.419 127.142 291.567 131.325 288.685 132.127C285.803 132.929 283.193 137.564 287.217 140.202C291.24 142.839 291.005 137.564 295.323 142.358C299.642 147.153 302.41 187.903 325.919 187.595C326.825 187.595 327.731 187.531 328.579 187.463C332.711 175.31 329.621 165.908 327.201 161.123Z" fill="#D8D8D8"/>
<path fill-rule="evenodd" clip-rule="evenodd" d="M367.766 117.508C363.601 118.348 359.496 119.461 355.477 120.838C355.477 120.838 337.184 125.646 336.69 139.666C336.277 151.402 330.423 165.653 324.269 159.763C317.151 152.966 289.673 124.21 287.325 126.126C286.419 127.141 291.567 131.324 288.685 132.126C285.803 132.928 283.193 137.564 287.217 140.201C291.24 142.838 291.005 137.564 295.323 142.358C299.642 147.152 302.41 187.902 325.919 187.594C336.722 187.449 344.044 183.335 348.467 177.92C348.068 181.355 347.561 184.567 347.139 187.368C369.529 187.848 405.032 208.479 408.231 214.239C439.574 149.626 367.766 117.508 367.766 117.508Z" stroke="#232323" stroke-width="0.554165"/>
<path d="M420.686 160.23C428.62 152.413 431.606 138.506 420.278 126.757C403.004 108.849 370.555 116.901 370.555 116.901C361.855 118.288 359.29 136.141 369.844 131.238C372.372 130.065 379.541 133.241 382.033 133.635C389.949 134.881 396.887 142.458 397.78 146.269C409.036 148.96 417.251 156.559 420.686 160.23Z" fill="#606B6E"/>
<g opacity="0.6">
<path d="M417.841 124.486C414.035 125.642 408.851 127.894 410.627 131.238C413.346 136.354 421.824 138.035 417.184 142.394C413.106 146.232 420.32 152.028 427.348 147.864C428.617 141.184 426.895 133.608 420.279 126.757C419.506 125.959 418.692 125.201 417.841 124.486V124.486Z" fill="white"/>
<path d="M396.342 126.163C396.342 126.163 391.267 130.097 397.824 134.093C404.381 138.09 397.733 141.856 401.535 142.531C405.337 143.206 404.924 120.952 396.342 126.163Z" fill="white"/>
<path d="M374.413 116.149C373.308 118.927 372.696 122.257 376.199 122.09C382.162 121.8 383.331 116.652 386.344 122.09C388.669 126.304 395.484 119.824 394.877 115.496C388.057 114.809 381.176 115.029 374.413 116.149Z" fill="white"/>
</g>
<path d="M391.354 151.308C391.354 151.308 390.715 138.62 382.078 133.958C385.839 133.958 397.67 139.631 398.314 149.305C396.633 156.746 391.354 151.308 391.354 151.308Z" fill="#232323"/>
<path d="M350.186 138.778C349.931 138.186 350.205 137.5 350.797 137.245L351.129 137.102C351.721 136.847 352.408 137.121 352.663 137.713L367.636 172.514C367.891 173.106 367.617 173.793 367.025 174.048L366.693 174.19C366.101 174.445 365.414 174.172 365.159 173.58L350.186 138.778Z" fill="white" stroke="#232323" stroke-width="0.554165" stroke-linecap="round"/>
<path d="M360.89 157.358C354.9 162.342 356.517 162.686 360.464 160.235C357.691 163.221 357.342 166.253 362.988 169.696C372.373 152.106 389.356 165.034 405.456 166.311C410.993 166.765 416.522 164.327 420.686 160.23C417.251 156.56 409.036 148.961 397.78 146.269C384.557 144.883 365.952 153.139 360.89 157.358Z" fill="#D8D8D8"/>
<path d="M370.556 116.901C370.556 116.901 403.005 108.849 420.279 126.757C431.607 138.506 428.621 152.413 420.687 160.23C416.522 164.308 410.994 166.755 405.457 166.311C389.357 165.033 372.378 152.105 362.989 169.696C357.502 166.352 357.678 163.393 360.234 160.493C360.248 160.481 360.254 160.463 360.251 160.446C360.248 160.428 360.236 160.414 360.22 160.407C360.203 160.401 360.184 160.404 360.17 160.415C356.441 162.681 355.05 162.228 360.891 157.357C365.962 153.138 384.558 144.882 397.781 146.269C396.874 142.458 389.95 134.881 382.034 133.635" stroke="#232323" stroke-width="0.554165" stroke-linecap="round"/>
<path d="M365.622 102.596C365.622 102.596 366.692 112.039 370.557 116.901C370.98 117.429 371.158 118.111 371.046 118.777C369.343 128.95 357.579 138.951 353.646 140.029C353.406 137.714 359.99 118.977 355.137 113.965C353.519 112.293 360.597 97.779 365.622 102.596Z" fill="#D8D8D8" stroke="#232323" stroke-width="0.554165"/>
<path d="M351.856 90.8548C351.856 90.8548 345.621 97.8104 347.139 109.51C348.657 121.21 363.687 118.12 365.69 110.367C367.693 102.614 360.651 79.9795 351.856 90.8548Z" fill="#D8D8D8"/>
<path d="M351.856 90.8545C351.856 90.8545 345.621 97.8101 347.139 109.51C348.276 118.265 357.017 118.745 362.16 115.165" stroke="#232323" stroke-width="0.554165" stroke-linecap="round"/>
<path d="M366.999 109.261C366.999 109.261 379.655 87.9638 368.25 85.0184C361.24 83.2058 357.134 86.5364 357.451 80.9402C357.769 75.344 350.999 71.0256 344.9 76.6218C338.8 82.218 341.592 101.703 359.291 99.4643C358.756 102.595 358.439 107.648 361.212 109.261C360.678 105.636 361.53 101.789 364.194 101.639C366.858 101.49 363.836 108.287 366.999 109.261Z" fill="#232323"/>
<path d="M344.26 145.63C344.26 145.63 351.392 161.277 348.465 177.92" stroke="#232323" stroke-width="0.554165" stroke-linecap="round"/>
<path d="M344.261 145.63C344.152 150.107 356.287 179.212 329.91 182.52C329.575 184.19 329.13 185.837 328.578 187.45C337.931 186.72 344.402 182.859 348.466 177.907C351.362 161.272 344.261 145.63 344.261 145.63V145.63Z" fill="#232323"/>
<path d="M361.086 80.22C352.191 51.0563 333.612 30.9054 319.592 35.1965C317.538 35.8417 315.663 36.9591 314.118 38.4591C315.622 37.4865 317.304 36.8227 319.066 36.5061C333.503 33.9821 349.472 56.2718 354.724 86.292C358.951 110.449 354.955 132.24 345.711 141.158C347.744 141.483 349.825 141.35 351.801 140.768C365.821 136.477 369.976 109.375 361.086 80.22Z" fill="#4A5C68"/>
<path d="M354.722 86.2781C349.47 56.258 333.501 33.9683 319.064 36.4922C317.302 36.8088 315.62 37.4727 314.116 38.4452C304.641 47.3992 302.706 70.7991 310.305 95.7124C317.963 120.802 332.785 139.213 345.709 141.144C354.953 132.226 358.949 110.417 354.722 86.2781Z" fill="#8FAFB8"/>
<path fill-rule="evenodd" clip-rule="evenodd" d="M319.592 35.1964C320.852 34.8094 322.162 34.6124 323.48 34.6118C336.879 34.6073 352.988 53.6933 361.09 80.2334C369.981 109.388 365.825 136.49 351.805 140.768C350.545 141.15 349.235 141.342 347.918 141.339C334.514 141.339 318.405 122.253 310.307 95.7261C301.417 66.576 305.572 39.474 319.592 35.1964ZM341.814 49.511C335.547 41.9663 329.036 37.8065 323.485 37.8065L323.498 37.7884C322.497 37.7932 321.501 37.9459 320.544 38.2415C315.084 39.909 311.069 46.6018 309.537 56.6025C307.856 67.591 309.225 81.1307 313.389 94.7791C317.136 107.132 322.905 118.369 329.584 126.449C335.846 133.993 342.358 138.149 347.913 138.149C348.915 138.144 349.911 137.991 350.868 137.696C356.328 136.028 360.343 129.335 361.874 119.33C363.555 108.364 362.192 94.8063 358.023 81.1534C354.257 68.8055 348.498 57.5677 341.814 49.511Z" fill="white"/>
<path d="M323.48 34.6118L323.48 34.3347H323.48L323.48 34.6118ZM319.592 35.1964L319.673 35.4614L319.673 35.4612L319.592 35.1964ZM361.09 80.2334L361.355 80.1526L361.355 80.1525L361.09 80.2334ZM351.805 140.768L351.886 141.033L351.886 141.033L351.805 140.768ZM347.918 141.339L347.918 141.062H347.918V141.339ZM310.307 95.7261L310.042 95.807L310.042 95.807L310.307 95.7261ZM323.485 37.8065L323.263 37.6402L322.931 38.0836H323.485V37.8065ZM341.814 49.511L342.027 49.3341L342.027 49.3339L341.814 49.511ZM323.498 37.7884L323.72 37.9546L324.055 37.5086L323.497 37.5113L323.498 37.7884ZM320.544 38.2415L320.625 38.5065L320.626 38.5062L320.544 38.2415ZM309.537 56.6025L309.263 56.5606L309.263 56.5606L309.537 56.6025ZM313.389 94.7791L313.654 94.6987L313.654 94.6983L313.389 94.7791ZM329.584 126.449L329.37 126.625L329.371 126.626L329.584 126.449ZM347.913 138.149V138.426L347.915 138.426L347.913 138.149ZM350.868 137.696L350.787 137.431L350.786 137.431L350.868 137.696ZM361.874 119.33L361.6 119.288L361.6 119.288L361.874 119.33ZM358.023 81.1534L357.758 81.2342L357.758 81.2343L358.023 81.1534ZM323.48 34.3347C322.135 34.3354 320.797 34.5365 319.511 34.9315L319.673 35.4612C320.907 35.0824 322.19 34.8895 323.48 34.8889L323.48 34.3347ZM361.355 80.1525C357.295 66.8536 351.227 55.4128 344.485 47.2914C337.753 39.1821 330.305 34.3324 323.48 34.3347L323.48 34.8889C330.055 34.8867 337.361 39.5778 344.058 47.6454C350.746 55.7009 356.783 67.0731 360.825 80.3143L361.355 80.1525ZM351.886 141.033C359.056 138.845 363.629 130.854 365.313 119.871C367.001 108.868 365.81 94.7608 361.355 80.1526L360.825 80.3143C365.261 94.8608 366.438 108.882 364.765 119.787C363.09 130.714 358.575 138.413 351.725 140.503L351.886 141.033ZM347.917 141.616C349.261 141.62 350.599 141.423 351.886 141.033L351.725 140.503C350.491 140.877 349.208 141.065 347.918 141.062L347.917 141.616ZM310.042 95.807C314.1 109.099 320.167 120.537 326.909 128.657C333.642 136.765 341.091 141.616 347.918 141.616V141.062C341.341 141.062 334.033 136.369 327.336 128.303C320.648 120.248 314.612 108.88 310.572 95.6452L310.042 95.807ZM319.511 34.9313C312.341 37.1189 307.769 45.1103 306.084 56.092C304.397 67.0954 305.588 81.201 310.042 95.807L310.572 95.6453C306.137 81.101 304.96 67.0806 306.632 56.176C308.308 45.2498 312.823 37.5514 319.673 35.4614L319.511 34.9313ZM323.485 38.0836C328.908 38.0836 335.348 42.1605 341.601 49.688L342.027 49.3339C335.746 41.772 329.163 37.5294 323.485 37.5294V38.0836ZM323.277 37.6221L323.263 37.6402L323.706 37.9728L323.72 37.9546L323.277 37.6221ZM320.626 38.5062C321.557 38.2187 322.525 38.0701 323.5 38.0654L323.497 37.5113C322.468 37.5162 321.445 37.6731 320.462 37.9768L320.626 38.5062ZM309.811 56.6445C310.573 51.6683 311.951 47.5319 313.805 44.4396C315.659 41.3473 317.979 39.3145 320.625 38.5065L320.463 37.9765C317.648 38.836 315.231 40.9834 313.33 44.1546C311.428 47.3257 310.033 51.536 309.263 56.5606L309.811 56.6445ZM313.654 94.6983C309.498 81.0787 308.138 67.5819 309.811 56.6444L309.263 56.5606C307.574 67.6002 308.951 81.1828 313.124 94.86L313.654 94.6983ZM329.797 126.272C323.146 118.227 317.393 107.023 313.654 94.6987L313.124 94.8596C316.88 107.24 322.663 118.512 329.37 126.625L329.797 126.272ZM347.913 137.872C342.486 137.872 336.045 133.799 329.797 126.272L329.371 126.626C335.648 134.188 342.23 138.426 347.913 138.426V137.872ZM350.786 137.431C349.855 137.718 348.886 137.867 347.912 137.872L347.915 138.426C348.944 138.421 349.966 138.264 350.949 137.96L350.786 137.431ZM361.6 119.288C360.838 124.266 359.461 128.404 357.607 131.497C355.753 134.59 353.432 136.623 350.787 137.431L350.949 137.961C353.763 137.101 356.181 134.954 358.082 131.782C359.983 128.61 361.379 124.399 362.148 119.372L361.6 119.288ZM357.758 81.2343C361.918 94.8584 363.274 108.373 361.6 119.288L362.148 119.372C363.837 108.355 362.465 94.7543 358.288 81.0725L357.758 81.2343ZM341.601 49.6879C348.256 57.7106 354 68.9135 357.758 81.2342L358.288 81.0726C354.514 68.6974 348.739 57.4248 342.027 49.3341L341.601 49.6879Z" fill="#232323"/>
<path d="M340.903 104.158C353.235 100.433 361.28 90.9508 358.872 82.9793C356.464 75.0078 344.515 71.5656 332.183 75.2909C319.851 79.0162 311.806 88.4983 314.214 96.4697C316.622 104.441 328.571 107.883 340.903 104.158Z" fill="white" stroke="#232323" stroke-width="0.555743"/>
<path d="M340.798 104.078C346.395 102.387 348.962 94.4916 346.531 86.4433C344.1 78.3949 337.591 73.2413 331.993 74.9323C326.395 76.6233 323.828 84.5186 326.26 92.567C328.691 100.615 335.2 105.769 340.798 104.078Z" fill="#232323"/>
<path d="M225.668 59.936L228.843 59.5478L253.791 263.611L250.615 264L225.668 59.936Z" fill="white" stroke="#232323" stroke-width="0.554165" stroke-linecap="round"/>
<path d="M343.954 85.068C346.161 85.068 347.95 83.2786 347.95 81.0714C347.95 78.8641 346.161 77.0747 343.954 77.0747C341.746 77.0747 339.957 78.8641 339.957 81.0714C339.957 83.2786 341.746 85.068 343.954 85.068Z" fill="white"/>
<path d="M239.674 203.414C263.524 203.414 282.858 184.08 282.858 160.23C282.858 136.38 263.524 117.046 239.674 117.046C215.824 117.046 196.49 136.38 196.49 160.23C196.49 184.08 215.824 203.414 239.674 203.414Z" fill="#8FAFB8"/>
<path d="M282.58 155.349C281.832 148.747 281.148 145.312 277.849 140.029C273.83 140.699 262.062 128.995 263.802 145.629C264.582 152.979 251.776 149.662 252.098 156.813C252.397 163.528 276.703 172.151 267.568 193.181C278.582 183.873 284.215 169.677 282.58 155.349Z" fill="#4A5C68" stroke="#232323" stroke-width="0.554165"/>
<path d="M227.649 165.803C227.649 165.803 237.297 163.311 238.86 169.197C240.423 175.083 246.237 173.933 245.811 176.497C245.385 179.062 236.445 184.735 229.92 177.213C223.395 169.691 223.952 166.315 227.649 165.803Z" fill="#4A5C68" stroke="#232323" stroke-width="0.554165"/>
<path d="M244.673 122.855C244.673 122.855 234.781 119.56 230.209 124.395C225.637 129.23 235.193 128.8 234.618 130.372C234.042 131.945 229.04 144.555 236.734 142.117C244.428 139.68 255.349 127.635 244.673 122.855Z" fill="#4A5C68" stroke="#232323" stroke-width="0.554165"/>
<path d="M219.678 178.264C225.279 179.782 221.119 170.774 217.281 167.842C213.443 164.91 214.404 159.273 218.881 154.579C223.358 149.884 223.516 131.111 213.923 131.877C208.35 132.33 203.207 138.425 199.876 143.468C193.966 157.505 195.895 173.618 204.951 185.863C207.924 185.918 208.418 180.829 208.169 177.489C207.847 173.225 214.082 176.746 219.678 178.264Z" fill="#4A5C68" stroke="#232323" stroke-width="0.554165"/>
<g opacity="0.65">
<path fill-rule="evenodd" clip-rule="evenodd" d="M245.252 195.847C268.848 192.304 285.472 172.763 282.385 152.202C279.297 131.641 257.667 117.846 234.072 121.389C210.476 124.932 193.852 144.472 196.939 165.033C200.027 185.594 221.657 199.39 245.252 195.847Z" stroke="white" stroke-width="0.279048"/>
<path fill-rule="evenodd" clip-rule="evenodd" d="M242.806 183.846C266.489 180.909 284.284 167.206 282.552 153.241C280.82 139.276 260.217 130.336 236.534 133.274C212.85 136.211 195.055 149.913 196.787 163.878C198.519 177.843 219.123 186.783 242.806 183.846Z" stroke="white" stroke-width="0.279048"/>
<path fill-rule="evenodd" clip-rule="evenodd" d="M241.152 170.636C264.828 167.8 283.358 159.97 282.541 153.146C281.723 146.323 261.868 143.09 238.193 145.926C214.517 148.762 195.987 156.592 196.804 163.415C197.621 170.239 217.477 173.471 241.152 170.636Z" stroke="white" stroke-width="0.279048"/>
<path d="M196.795 163.384L282.546 153.197" stroke="white" stroke-width="0.279048"/>
<path fill-rule="evenodd" clip-rule="evenodd" d="M244.55 203.109C264.343 200.857 278.203 179.828 275.508 156.139C272.814 132.449 254.584 115.07 234.791 117.322C214.998 119.574 201.137 140.603 203.832 164.292C206.527 187.982 224.757 205.361 244.55 203.109Z" stroke="white" stroke-width="0.279048"/>
<path fill-rule="evenodd" clip-rule="evenodd" d="M244.611 203.125C258.004 201.601 266.675 181.156 263.98 157.459C261.284 133.762 248.242 115.787 234.849 117.311C221.456 118.834 212.785 139.279 215.481 162.976C218.176 186.673 231.219 204.648 244.611 203.125Z" stroke="white" stroke-width="0.279048"/>
<path fill-rule="evenodd" clip-rule="evenodd" d="M244.854 203.088C251.397 202.343 254.516 182.544 251.823 158.865C249.129 135.185 241.642 116.592 235.099 117.337C228.557 118.081 225.438 137.88 228.131 161.56C230.825 185.239 238.312 203.832 244.854 203.088Z" stroke="white" stroke-width="0.279048"/>
<path d="M235.095 117.341L244.851 203.092" stroke="white" stroke-width="0.279048"/>
</g>
<path fill-rule="evenodd" clip-rule="evenodd" d="M239.677 203.414C263.527 203.414 282.861 184.08 282.861 160.231C282.861 136.381 263.527 117.047 239.677 117.047C215.827 117.047 196.493 136.381 196.493 160.231C196.493 184.08 215.827 203.414 239.677 203.414Z" stroke="#232323" stroke-width="0.554165"/>
<path d="M252.106 179.533C252.106 179.533 256.638 180.44 257.091 181.822C257.544 183.204 246.139 186.892 246.42 183.294C246.7 179.697 244.738 179.375 252.106 179.533Z" fill="#4A5C68" stroke="#232323" stroke-width="0.554165"/>
<path d="M265.67 132.698C265.67 132.698 258.338 132.929 256.807 130.152C255.275 127.374 261.624 129.975 261.601 127.75C261.578 125.525 269.925 132.997 265.67 132.698Z" fill="#4A5C68" stroke="#232323" stroke-width="0.554165"/>
<path opacity="0.28" d="M282.58 155.35C281.153 142.711 274.223 131.346 263.641 124.291C253.059 117.235 239.903 115.208 227.688 118.75C228.648 118.669 229.609 118.614 230.588 118.596C252.208 118.28 270.73 134.005 273.927 155.39C277.124 176.776 264.011 197.229 243.244 203.251C243.697 203.214 244.118 203.183 244.558 203.133C255.936 201.839 266.335 196.077 273.465 187.116C280.596 178.155 283.875 166.728 282.58 155.35Z" fill="#232323" stroke="#232323" stroke-width="0.554165"/>
<path d="M296.07 214.238C296.07 214.238 323 218.484 331.818 240.642C331.818 240.642 355.911 244.172 366.664 266.439" stroke="#232323" stroke-width="0.554165" stroke-linecap="round"/>
<path d="M397.785 146.268C397.785 146.268 410.115 148.837 420.691 160.229" stroke="#232323" stroke-width="0.554165"/>
<path d="M328.581 187.449C328.581 187.449 333.815 173.805 327.222 161.108" stroke="#232323" stroke-width="0.554165"/>
<path d="M290.083 140.876C290.083 140.876 294.845 138.991 290.686 133.313" stroke="#232323" stroke-width="0.554165" stroke-linecap="round"/>
<path d="M364.145 268.693C355.083 254.378 335.299 247.522 330.301 245.981C320.005 284.498 323.05 329.218 323.59 338.394C323.737 340.048 323.543 341.716 323.019 343.292C325.71 344.8 328.579 345.965 331.56 346.759C343.002 326.784 358.984 286.097 363.425 270.179C363.576 269.645 363.82 269.142 364.145 268.693Z" fill="#D8D8D8" stroke="#232323" stroke-width="0.554165"/>
<path d="M323.009 343.292C320.068 351.299 307.149 344.737 307.149 344.737C307.149 344.737 317.594 353.32 323.141 357.797C325.302 356.587 328.234 352.536 331.546 346.758C328.565 345.965 325.696 344.8 323.005 343.292L323.009 343.292Z" fill="#232323" stroke="#232323" stroke-width="0.554165"/>
<path d="M243.193 203.31C243.193 203.31 246.365 205.657 247.077 208.72C246.655 205.267 246.17 202.92 246.17 202.92L243.193 203.31Z" fill="#232323" stroke="#232323" stroke-width="0.554165" stroke-linecap="round"/>
<path opacity="0.61" d="M313.391 56.4351C312.285 62.2216 311.827 69.7618 313.164 79.0918" stroke="white" stroke-width="1.66643"/>
<path opacity="0.61" d="M318.991 41.8394C318.991 41.8394 317.328 43.9691 315.66 48.3101" stroke="white" stroke-width="1.66643"/>
<path d="M413.286 79.1001H427.578C434.465 79.1001 440.048 84.6832 440.048 91.5704C440.049 94.8785 438.736 98.0515 436.397 100.391C434.059 102.731 430.886 104.045 427.578 104.045H413.286V79.1228L413.286 79.1001Z" fill="#232323" stroke="#232323" stroke-width="0.554165"/>
<path d="M413.795 104.041C420.683 104.041 426.266 98.4575 426.266 91.5704C426.266 84.6832 420.683 79.1001 413.795 79.1001C406.908 79.1001 401.325 84.6832 401.325 91.5704C401.325 98.4575 406.908 104.041 413.795 104.041Z" fill="white" stroke="#232323" stroke-width="0.554165"/>
<path d="M164.507 233.614H150.215C143.328 233.614 137.745 228.031 137.745 221.144C137.745 214.257 143.328 208.674 150.215 208.674H164.507V233.596V233.614Z" fill="#232323" stroke="#232323" stroke-width="0.554165"/>
<path d="M164.002 233.609C170.889 233.609 176.472 228.026 176.472 221.139C176.472 214.252 170.889 208.669 164.002 208.669C157.114 208.669 151.531 214.252 151.531 221.139C151.531 228.026 157.114 233.609 164.002 233.609Z" fill="white" stroke="#232323" stroke-width="0.554165"/>
<path d="M393.807 247.716C387.372 255.831 379.71 263.852 371.676 268.696" stroke="#232323" stroke-width="0.554165" stroke-linecap="round"/>
<path d="M398.02 242.165C397.227 243.248 396.412 244.345 395.573 245.441" stroke="#232323" stroke-width="0.554165" stroke-linecap="round"/>
<path d="M411.743 220.56C411.743 220.56 408.023 227.57 402.005 236.474" stroke="#232323" stroke-width="0.554165" stroke-linecap="round"/>
<path d="M258.847 120.036L262.377 118.537" stroke="#232323" stroke-width="0.554165" stroke-linecap="round"/>
<path d="M268.509 115.931L302.208 101.616" stroke="#232323" stroke-width="0.554165" stroke-linecap="round" stroke-dasharray="5.77"/>
<path d="M305.271 100.316L308.806 98.8115" stroke="#232323" stroke-width="0.554165" stroke-linecap="round"/>
<path d="M282.904 227.883C282.805 229.249 282.788 230.62 282.854 231.988" stroke="#232323" stroke-width="0.554165" stroke-linecap="round"/>
<path d="M298.198 202.919C292.412 206.587 287.876 211.927 285.193 218.23C284.547 219.78 284.031 221.381 283.647 223.015" stroke="#232323" stroke-width="0.554165" stroke-linecap="round"/>
<path d="M187.212 161.774C187.212 161.774 172.449 161.91 169.196 166.007C165.942 170.103 194.73 168.658 194.73 168.658" stroke="#232323" stroke-width="0.554165" stroke-linecap="round"/>
<path d="M417.963 290.066H432.572V304.675H417.963V290.066Z" fill="white"/>
<path d="M285.154 177.771C285.154 177.771 296.283 175.958 298.2 179.502C300.117 183.045 277.41 185.895 277.41 185.895" stroke="#232323" stroke-width="0.554165" stroke-linecap="round"/>
<path fill-rule="evenodd" clip-rule="evenodd" d="M411.747 283.85H426.356V298.459H411.747V283.85Z" stroke="#232323" stroke-width="0.554165" stroke-linecap="round"/>
</svg>
