<svg width="705" height="461" viewBox="0 0 705 461" fill="none" xmlns="http://www.w3.org/2000/svg">
<path d="M79.045 259.405C79.278 260.009 79.511 260.613 79.7493 261.211C101.556 316.743 142.891 368.257 206.515 372.848C250.736 376.025 283.176 355.505 313.857 326.667C336.315 305.549 366.281 305.766 395.135 304.882C415.258 304.267 436.439 299.666 446.056 280.264C459.749 252.595 447.289 216.661 428.756 194.214C412.552 174.621 386.17 158.396 360.138 159.127C330.103 159.969 304.315 177.47 275.328 183.041C243.736 189.12 211.291 178.916 184.74 161.859C163.691 148.351 136.944 127.609 110.192 132.56C83.7155 137.458 69.5875 168.399 67.2681 192.731C65.1023 215.422 70.8531 238.139 79.045 259.405Z" fill="#DCDCDC"/>
<mask id="mask0_236_3762" style="mask-type:luminance" maskUnits="userSpaceOnUse" x="66" y="132" width="534" height="242">
<path fill-rule="evenodd" clip-rule="evenodd" d="M83.6783 259.539C84.0004 260.141 84.3224 260.743 84.6518 261.34C114.793 316.727 171.929 368.106 259.873 372.685C320.998 375.854 365.837 355.388 408.246 326.625C439.288 305.562 480.709 305.779 520.593 304.897C548.407 304.284 577.685 299.694 590.977 280.343C609.906 252.747 592.683 216.906 567.065 194.518C544.667 174.976 508.201 158.794 472.219 159.522C430.703 160.362 395.057 177.818 354.99 183.374C311.322 189.437 266.475 179.26 229.775 162.248C200.68 148.775 163.71 128.087 126.732 133.025C90.1341 137.91 70.6057 168.77 67.3998 193.039C64.4061 215.67 72.3551 238.328 83.6783 259.539Z" fill="white"/>
</mask>
<g mask="url(#mask0_236_3762)">
<path d="M81.4042 260.571C81.4042 260.571 149.415 394.802 285.909 373.548C422.402 352.294 353.899 301.903 503.467 306.231C653.035 310.559 542.69 106.659 392.609 168.853C242.529 231.047 192.795 104.297 112.784 135.394C32.7723 166.491 81.4042 260.571 81.4042 260.571Z" fill="#DCDCDC"/>
</g>
<path d="M439.384 348.123C435.106 327.021 408.989 353.138 412.828 341.001C416.667 328.864 400.537 326.047 395.396 333.365C389.788 341.382 378.451 343.844 384.482 334.922C390.513 325.999 380.346 312.856 367.95 316.388C355.553 319.92 360.722 313.878 361.156 312.851C374.659 290.568 346.26 280.999 336.125 296.483C328.293 308.45 318.65 300.454 319.556 284.775C320.461 269.095 297.739 269.773 280.534 296.472C263.329 323.171 252.289 300.391 252.289 300.391C252.289 300.391 250.573 295.127 247.83 296.472C245.087 297.817 205.075 348.102 205.075 348.102H439.384" fill="white"/>
<path d="M439.385 348.123C435.106 327.021 408.989 353.138 412.828 341.001C416.668 328.864 400.538 326.047 395.396 333.365C389.788 341.382 378.451 343.845 384.482 334.922C390.514 325.999 380.347 312.856 367.95 316.388C355.554 319.92 360.722 313.878 361.156 312.851C374.66 290.568 346.261 280.999 336.125 296.483C328.293 308.45 318.651 300.454 319.556 284.775C320.223 272.908 307.377 270.409 293.609 281.471L289.78 298.68C289.78 298.68 297.406 276.551 308.468 280.088C319.53 283.626 309.527 317.024 326.625 318.03C343.724 319.036 337.534 296.483 354.209 297.796C367.214 298.823 342.845 329.224 370.73 329.521C390.17 329.727 369.952 353.392 387.384 343.892C404.817 334.392 409.095 334.758 407.178 340.715C405.261 346.672 412.892 348.219 423.832 343.601C431.601 340.318 433.475 344.66 432.008 348.129L439.385 348.123Z" fill="#D8D8D8"/>
<path d="M319.577 284.785C320.461 269.106 297.739 269.773 280.534 296.493C263.329 323.214 252.289 300.412 252.289 300.412C252.289 300.412 250.573 295.148 247.83 296.493C245.087 297.838 205.075 348.123 205.075 348.123" stroke="#191919" stroke-width="0.510413" stroke-linecap="round"/>
<path d="M319.671 289.753C319.591 288.911 319.543 288.037 319.533 287.137" stroke="#191919" stroke-width="0.510413" stroke-linecap="round"/>
<path d="M390.401 338.306C385.153 341.896 379.985 341.573 384.502 334.922C390.56 326.005 380.366 312.856 367.97 316.388C355.573 319.92 360.742 313.878 361.176 312.851C374.679 290.568 346.28 281 336.145 296.483C330.415 305.242 323.722 303.309 320.889 295.493" stroke="#191919" stroke-width="0.510413" stroke-linecap="round"/>
<path d="M394.707 334.312C394.389 334.71 394.061 335.091 393.717 335.456" stroke="#191919" stroke-width="0.510413" stroke-linecap="round"/>
<path d="M439.383 348.123C435.104 327.021 408.988 353.137 412.827 341.001C416.666 328.864 400.536 326.046 395.395 333.365" stroke="#191919" stroke-width="0.510413" stroke-linecap="round"/>
<path d="M262.572 347.668C262.572 347.398 262.572 347.138 262.572 346.873C262.466 330.58 242.375 337.776 241.883 327.127C241.38 316.303 255.121 292.792 255.121 292.792C255.121 292.792 242.412 305.58 237.419 322.202C232.425 338.825 249.317 333.513 249.418 339.809C249.519 346.106 235.253 348.123 235.253 348.123L262.572 347.668Z" fill="#D8D8D8"/>
<path d="M256.52 281.773C256.52 281.773 232.299 311.178 220.12 306.899C207.94 302.621 218.976 285.533 204.101 275.657C189.227 265.781 176.698 305.184 165.366 292.199C154.034 279.215 122.727 279.268 100.159 302.997C77.5898 326.725 87.6246 347.668 87.6246 347.668L212.648 343.601L253.025 290.039L256.52 281.773Z" fill="#D8D8D8"/>
<path d="M220.119 306.899C207.966 302.62 218.975 285.532 204.1 275.656C197.301 271.15 190.994 276.927 185.063 283.292C193.822 282.821 201.172 283.372 202.994 286.205C208.157 294.243 208.39 323.166 225.123 312.682C241.856 302.197 247.813 292.766 247.813 292.766L245.865 293.12C237.842 300.889 227.04 309.33 220.119 306.899Z" fill="white"/>
<path d="M241.877 304.817L253.024 290.033L256.519 281.772C256.519 281.772 232.298 311.177 220.118 306.898C217.355 306.037 215.205 303.851 214.389 301.074" stroke="#191919" stroke-width="0.510413" stroke-linecap="round"/>
<path d="M212.775 290.303C212.018 285.14 210.313 279.781 204.117 275.677C189.248 265.817 176.714 305.183 165.366 292.199C154.018 279.214 122.727 279.267 100.159 302.996C77.5898 326.724 87.6246 347.668 87.6246 347.668L212.648 343.601L238.542 309.25" stroke="#191919" stroke-width="0.510413" stroke-linecap="round"/>
<path d="M352.673 348.002C354.887 336.765 339.541 330.459 328.723 337.411C317.904 344.364 321.494 314.906 300.504 328.372C279.513 341.838 284.618 304.66 284.618 304.66C282.208 304.58 271.188 301.482 271.188 309.229C271.188 316.977 275.234 339.99 291.115 335.86C306.996 331.729 313.8 331.094 312.021 338.788C310.242 346.482 318.603 348.765 328.834 343.247C339.064 337.729 351.101 338.264 346.578 348.203" fill="#D8D8D8"/>
<path d="M213.622 297.558C213.517 296.843 213.432 296.102 213.352 295.35" stroke="#191919" stroke-width="0.510413" stroke-linecap="round"/>
<path d="M27.898 269.996C27.898 269.996 5.684 262.355 16.3065 236.265C26.929 210.174 39.5213 237.112 47.3902 214.792C55.2591 192.472 69.8002 181.098 72.9668 190.841C76.1334 200.584 91.9242 174.754 156.808 146.439C156.767 148.814 156.49 151.178 155.982 153.498C155.982 153.498 59.7019 194.129 61.1952 245.955C62.6885 297.781 27.898 269.996 27.898 269.996Z" fill="white"/>
<path d="M72.9682 190.825C71.6444 186.742 68.3189 186.377 64.3262 188.961C65.6553 190.83 69.7539 193.415 66.9315 196.677C60.5347 204.09 69.6056 198.302 80.7524 190.544C76.1825 193.441 73.969 193.87 72.9682 190.825Z" fill="#D8D8D8"/>
<path d="M16.307 236.249C11.0117 249.297 13.8976 257.732 18.1233 262.9C23.0057 257.038 27.7503 247.083 27.7503 247.083C27.7503 247.083 15.984 245.394 23.1327 225.96C20.7975 227.723 18.5099 230.848 16.307 236.249Z" fill="#D8D8D8"/>
<path d="M47.593 256.858C44.0451 247.936 28.6886 239.384 14.46 256.175C16.3663 262.148 20.5708 265.834 23.7745 267.878C30.8438 264.653 37.3889 261.465 37.3836 263.742C37.3836 269.567 48.5727 273.904 57.6224 267.608C58.032 267.327 58.4601 267.074 58.9039 266.851C60.0001 263.506 60.6881 260.04 60.9532 256.53C53.8998 260.957 50.3572 263.816 47.593 256.858Z" fill="#D8D8D8"/>
<path fill-rule="evenodd" clip-rule="evenodd" d="M27.898 269.996C27.898 269.996 5.684 262.355 16.3065 236.265C26.929 210.174 39.5213 237.112 47.3902 214.792C55.2591 192.472 69.8002 181.098 72.9668 190.841C76.1334 200.584 91.9242 174.754 156.808 146.439C156.767 148.814 156.49 151.178 155.982 153.498C155.982 153.498 59.7019 194.129 61.1952 245.955C62.6885 297.781 27.898 269.996 27.898 269.996Z" stroke="#191919" stroke-width="0.510413"/>
<path d="M219.198 346.318C219.198 346.318 186.134 341.023 185.599 335.828C185.064 330.633 175.803 332.73 173.664 338.926C171.524 345.121 167.436 335.399 165.382 339.259C163.327 343.119 165.826 345.91 170.015 345.714C174.204 345.518 217.949 349.744 219.198 346.318Z" fill="white" stroke="#191919" stroke-width="0.510413"/>
<path d="M119.591 296.726C119.591 296.726 100.115 330.696 109.361 331.093C118.606 331.49 144.58 320.349 136.748 337.447C132.692 346.301 196.289 341.535 222.289 347.943C217.396 348.123 98.738 347.943 98.738 347.943L79.2617 329.579C79.2617 329.579 117.431 281.184 119.591 296.726Z" fill="white"/>
<path d="M136.749 337.449C144.581 320.35 118.613 331.486 109.362 331.094C101.382 330.755 114.811 305.385 118.623 298.459L117.416 298.104C117.416 298.104 91.903 333.609 107.545 334.965C123.188 336.321 134.986 328.499 131.597 338.089C128.324 347.33 214.734 347.658 221.089 347.669C194.442 341.674 132.746 346.17 136.749 337.449Z" fill="#D8D8D8"/>
<path d="M155.984 153.497C155.984 153.497 77.6766 207.732 72.969 228.03C68.2615 248.327 101.913 228.305 99.2446 253.447C96.5757 278.59 149.826 234.331 149.762 259.622C149.699 284.912 60.5196 335.822 35.6262 293.65C10.7327 251.477 59.2752 201.775 152.415 151.49C245.555 101.206 155.984 153.497 155.984 153.497Z" fill="white"/>
<path d="M106.958 271.245C111.595 267.626 116.026 263.749 120.228 259.632" stroke="#D8D8D8" stroke-width="0.459832"/>
<path d="M101.293 275.004C102.087 274.575 102.95 274.056 103.888 273.416" stroke="#D8D8D8" stroke-width="0.459832"/>
<path d="M154.628 154.461C154.829 153.45 154.686 152.772 154.099 152.518C154.099 152.518 79.8842 195.209 69.0499 224.72C58.2155 254.231 89.4793 239.467 93.6733 246.907C97.2476 253.262 86.5616 279.696 98.169 276.35" stroke="#D8D8D8" stroke-width="0.459832"/>
<path d="M82.8253 195.33C101.724 180.89 125.188 166.206 152.412 151.511C245.536 101.21 155.981 153.497 155.981 153.497C155.981 153.497 77.673 207.732 72.9654 228.029C68.2578 248.326 101.91 228.304 99.241 253.447C96.5721 278.589 149.822 234.33 149.759 259.621C149.695 284.912 60.516 335.821 35.6225 293.649C29.9512 284.043 28.0872 274.056 29.697 263.746" stroke="#191919" stroke-width="0.459832"/>
<path d="M78.584 198.608C79.3995 197.962 80.2203 197.321 81.0516 196.675" stroke="#191919" stroke-width="0.459832"/>
<path d="M74.835 201.626L76.6142 200.181" stroke="#191919" stroke-width="0.459832"/>
<path d="M41.1348 236.809C41.892 235.691 42.6757 234.574 43.4965 233.451C49.9727 224.608 58.5512 215.611 69.0466 206.503" stroke="#191919" stroke-width="0.459832"/>
<path d="M37.7725 242.167C38.302 241.235 38.8739 240.303 39.467 239.366" stroke="#191919" stroke-width="0.459832"/>
<path d="M115.96 266.686C115.96 266.686 92.7615 289.165 89.4572 280.65C86.1529 272.135 86.9366 244.589 71.9825 250.689C57.0285 256.789 51.5266 266.76 47.5921 256.858C45.8394 252.447 41.2006 248.126 35.2381 246.908C32.1721 253.13 30.2287 259.257 29.4873 265.283C34.0042 263.292 37.3827 262.106 37.3774 263.742C37.3774 269.567 48.5665 273.904 57.6162 267.608C66.666 261.312 79.4543 270.827 71.3842 286.041C63.314 301.254 97.7233 297.945 120.456 269.594C123.581 260.2 115.96 266.686 115.96 266.686Z" fill="#D8D8D8"/>
<path d="M193.874 344.66C204.756 345.248 215.003 346.164 222.289 347.959C217.396 348.139 98.738 347.959 98.738 347.959L79.2617 329.579C79.2617 329.579 117.431 281.185 119.591 296.748C119.591 296.748 100.115 330.718 109.361 331.115C118.606 331.512 144.58 320.371 136.748 337.469C134.63 342.071 150.797 342.992 170.448 343.718" stroke="#191919" stroke-width="0.510413" stroke-linecap="round"/>
<path d="M293.019 348.123C295.311 338.385 281.798 336.097 279.044 341.483C276.291 346.868 266.452 344.067 269.555 337.426C272.658 330.786 266.971 328.128 259.001 324.956C251.032 321.784 259.446 309.244 259.446 309.244C257.736 312.247 251.318 303.25 248.929 308.466C246.541 313.682 244.762 326.952 254.797 328.387C264.831 329.822 266.897 332.094 265.276 335.827C263.656 339.56 268.226 349.039 278.112 344.522C287.999 340.005 289.82 348.123 289.82 348.123H293.019Z" fill="#D8D8D8"/>
<path d="M189.23 344.412L191.571 344.523" stroke="#191919" stroke-width="0.510413" stroke-linecap="round"/>
<path d="M246.696 295.487C246.696 295.487 230.418 321.583 208.521 318.845C186.625 316.108 219.684 292.792 183.384 280.84C147.085 268.889 115.074 308.615 113.295 320.842C111.516 333.069 139.242 314.752 140.593 323.251C141.943 331.75 143.24 345.634 158.3 331.093" stroke="#D8D8D8" stroke-width="0.510413"/>
<path d="M32.7375 334.965C32.7375 334.965 2.92995 333.588 4.99514 308.488C7.06033 283.388 29.5603 306.37 19.049 281.894C8.53774 257.419 37.4557 244.795 45.1287 259.654C52.8016 274.513 69.9162 243.027 77.298 259.654C84.6797 276.281 68.7354 306.873 109.165 277.859C149.595 248.846 159 237.509 159 237.509C159 237.509 123.924 278.648 113.889 289.271C103.854 299.893 66.9667 334.986 66.9667 334.986L32.7375 334.965Z" fill="white"/>
<path d="M121.79 280.512C123.124 272.569 118.046 275.567 118.046 275.567C118.046 275.567 86.0989 303.028 79.2626 301.938C72.4263 300.847 77.0015 289.102 63.869 292.496C50.7365 295.89 54.4274 299.581 46.1613 292.941C37.8953 286.3 21.9616 291.463 24.7681 302.97C27.4158 313.942 5.17528 317.712 6.02783 302.748C5.47611 304.611 5.12986 306.528 4.99523 308.467C3.10479 331.464 27.8977 334.562 32.1339 334.922C36.4581 330.982 40.3623 326.604 43.7837 321.859L65.6218 318.152C65.6218 318.152 98.6754 300.778 114.043 289.027C115.938 287.073 118.634 284.076 121.79 280.512Z" fill="#D8D8D8"/>
<path d="M79.5379 270.371C80.597 285.902 76.5937 301.211 109.165 277.837C149.595 248.819 159 237.487 159 237.487C159 237.487 123.924 278.626 113.889 289.249C103.854 299.871 66.9667 334.964 66.9667 334.964H32.7375C32.7375 334.964 2.92995 333.587 4.99514 308.487C7.06033 283.387 29.5603 306.369 19.049 281.894C15.3846 273.363 16.5072 266.272 19.8539 261.284" stroke="#191919" stroke-width="0.459832"/>
<path d="M117.418 298.103C117.418 298.103 100.472 316.716 99.281 331.093C98.0896 345.47 126.139 328.943 127.32 341.927C127.759 346.428 141.215 344.999 141.215 344.999" stroke="#D8D8D8" stroke-width="0.459832"/>
<path d="M78.8747 264.89C79.0441 265.785 79.1765 266.691 79.2877 267.607" stroke="#191919" stroke-width="0.459832"/>
<path d="M284.606 304.674C284.606 304.674 279.512 341.853 300.492 328.386C321.472 314.92 317.892 344.4 328.711 337.426C339.529 330.452 354.753 336.668 352.54 347.9" stroke="#191919" stroke-width="0.459832"/>
<path d="M27.8965 254.638C34.3145 251.911 41.765 253.145 45.1276 259.658C52.8006 274.522 69.9152 243.03 77.2969 259.658" stroke="#191919" stroke-width="0.459832"/>
<path d="M352.413 317.6C351.031 309.053 346.588 302.985 335.95 324.871C335.362 326.433 328.574 340.884 317.655 325.617C306.735 310.351 317.019 274.072 293.021 289.19" stroke="#D8D8D8" stroke-width="0.459832"/>
<path d="M352.862 321.89C352.819 321.101 352.756 320.301 352.666 319.496" stroke="#D8D8D8" stroke-width="0.459832"/>
<path d="M24.0283 256.857C24.6377 256.395 25.2762 255.972 25.9399 255.592" stroke="#191919" stroke-width="0.459832"/>
<path d="M238.736 337.811C243.805 328.168 238.605 315.458 227.122 309.421C215.638 303.385 202.22 306.308 197.151 315.951C192.082 325.594 197.282 338.304 208.765 344.341C220.248 350.377 233.667 347.454 238.736 337.811Z" fill="#191919" stroke="#191919" stroke-width="0.459832"/>
<path d="M226.08 331.159C228.062 327.387 226.027 322.414 221.533 320.052C217.039 317.69 211.789 318.832 209.806 322.604C207.823 326.376 209.859 331.348 214.353 333.711C218.847 336.073 224.097 334.93 226.08 331.159Z" fill="white" stroke="#191919" stroke-width="0.459832"/>
<path d="M220.898 328.351C219.721 330.609 217.056 331.65 214.66 330.786L195.56 323.85L203.042 309.61L219.458 321.89C221.46 323.397 222.07 326.136 220.898 328.351Z" fill="#8FAFB8"/>
<path d="M221.465 325.481C221.217 326.211 220.29 329.828 213.522 326.476C205.209 322.351 201.031 322.002 195.375 326.476C194.687 327.006 199.262 324.533 199.368 325.242L214.645 330.787C217.041 331.65 219.706 330.609 220.883 328.351C221.354 327.472 221.556 326.474 221.465 325.481Z" fill="#606B6E"/>
<path fill-rule="evenodd" clip-rule="evenodd" d="M220.898 328.351C219.721 330.609 217.056 331.65 214.66 330.786L195.56 323.85L203.042 309.61L219.458 321.89C221.46 323.397 222.07 326.136 220.898 328.351V328.351Z" stroke="#191919" stroke-width="0.510413"/>
<path d="M219.016 327.471C219.486 326.575 219.003 325.395 217.937 324.834C216.87 324.273 215.624 324.545 215.153 325.441C214.682 326.336 215.165 327.517 216.232 328.078C217.298 328.638 218.545 328.367 219.016 327.471Z" fill="#191919" stroke="#191919" stroke-width="0.510413"/>
<path d="M193.909 314.365C190.43 320.99 189.885 328.488 191.791 335.706C197.002 336.441 202.113 333.824 204.563 329.166L212.644 313.809C214.959 309.408 214.438 304.053 211.32 300.179C203.833 302.589 197.563 307.423 193.909 314.365Z" fill="#8FAFB8"/>
<path d="M195.234 330.861C191.813 329.728 194.863 316.415 194.863 316.415C194.381 315.748 193.878 315.462 193.37 315.494C190.394 321.848 190.007 328.896 191.808 335.706C197.019 336.441 202.13 333.824 204.58 329.166L207.339 323.918C203.929 322.314 198.321 331.888 195.234 330.861Z" fill="#606B6E"/>
<path d="M210.095 318.638L212.642 313.798C214.957 309.397 214.437 304.042 211.318 300.168C203.831 302.588 197.55 307.423 193.907 314.365C190.428 320.989 189.883 328.488 191.789 335.705C197 336.44 202.111 333.823 204.561 329.165L207.262 324.029" stroke="#191919" stroke-width="0.510413" stroke-linecap="round"/>
<path d="M193.24 316.414C196.946 316.414 199.95 313.41 199.95 309.705C199.95 305.999 196.946 302.996 193.24 302.996C189.535 302.996 186.531 305.999 186.531 309.705C186.531 313.41 189.535 316.414 193.24 316.414Z" fill="#191919" stroke="#191919" stroke-width="0.510413"/>
<path d="M325.5 327.065C328.899 319.805 324.647 310.638 316.002 306.59C307.357 302.543 297.593 305.146 294.194 312.406C290.795 319.666 295.047 328.833 303.692 332.88C312.337 336.928 322.101 334.324 325.5 327.065Z" fill="#191919" stroke="#191919" stroke-width="0.510413"/>
<path d="M315.971 322.603C317.3 319.763 315.636 316.178 312.254 314.594C308.872 313.011 305.052 314.029 303.723 316.868C302.393 319.707 304.057 323.293 307.44 324.876C310.822 326.46 314.641 325.442 315.971 322.603Z" fill="white" stroke="#191919" stroke-width="0.510413"/>
<path d="M312.063 320.688C311.275 322.387 309.353 323.244 307.562 322.695L293.265 318.247L298.285 307.523L310.766 315.996C312.293 317.028 312.843 319.018 312.063 320.688Z" fill="#8FAFB8"/>
<path d="M312.382 318.565C312.223 319.095 311.667 321.795 306.589 319.561C300.34 316.812 297.258 316.696 293.25 320.18C292.762 320.604 296.04 318.618 296.146 319.121L307.563 322.68C309.354 323.229 311.276 322.372 312.064 320.673C312.374 320.016 312.484 319.284 312.382 318.565Z" fill="#606B6E"/>
<path fill-rule="evenodd" clip-rule="evenodd" d="M312.063 320.688C311.275 322.387 309.353 323.244 307.562 322.695L293.265 318.247L298.285 307.523L310.766 315.996C312.293 317.028 312.843 319.018 312.063 320.688V320.688Z" stroke="#191919" stroke-width="0.510413"/>
<path d="M310.657 320.128C310.974 319.453 310.58 318.601 309.777 318.225C308.974 317.849 308.068 318.092 307.751 318.767C307.435 319.443 307.829 320.295 308.632 320.671C309.434 321.046 310.341 320.803 310.657 320.128Z" fill="#191919" stroke="#191919" stroke-width="0.510413"/>
<path d="M291.751 311.331C289.416 316.314 289.273 321.848 290.919 327.085C294.775 327.446 298.442 325.349 300.086 321.842L305.503 310.277C307.053 306.963 306.489 303.044 304.068 300.301C298.645 302.334 294.203 306.099 291.751 311.331Z" fill="#8FAFB8"/>
<path d="M293.271 323.404C290.724 322.689 292.508 312.814 292.508 312.814C292.272 312.418 291.841 312.179 291.38 312.189C289.471 316.947 289.308 322.228 290.919 327.095C294.775 327.457 298.442 325.359 300.086 321.853L301.934 317.908C299.381 316.833 295.59 324.056 293.271 323.404Z" fill="#606B6E"/>
<path d="M303.788 313.948L305.493 310.305C307.043 306.99 306.479 303.072 304.058 300.328C298.636 302.362 294.193 306.127 291.741 311.358C289.406 316.341 289.263 321.875 290.91 327.112C294.765 327.474 298.433 325.376 300.076 321.87L301.887 318.004" stroke="#191919" stroke-width="0.510413" stroke-linecap="round"/>
<path d="M291.105 312.862C293.831 312.862 296.04 310.653 296.04 307.927C296.04 305.201 293.831 302.992 291.105 302.992C288.38 302.992 286.17 305.201 286.17 307.927C286.17 310.653 288.38 312.862 291.105 312.862Z" fill="#191919" stroke="#191919" stroke-width="0.510413"/>
<path d="M262.514 345.413C262.58 346.163 262.599 346.916 262.572 347.668" stroke="#191919" stroke-width="0.510413" stroke-linecap="round"/>
<path d="M242.454 321.89C242.045 323.608 241.856 325.372 241.893 327.138C242.338 336.802 258.918 331.771 262.068 342.923" stroke="#191919" stroke-width="0.510413" stroke-linecap="round"/>
<path d="M244.016 316.399C243.814 316.997 243.619 317.585 243.438 318.173" stroke="#191919" stroke-width="0.510413" stroke-linecap="round"/>
<path d="M255.143 292.792C255.143 292.792 248.879 303.505 244.96 313.794" stroke="#191919" stroke-width="0.510413" stroke-linecap="round"/>
<path d="M207.185 240.755L202.948 238.34L178.193 281.645L186.024 286.13L160.453 329.764L166.209 330.876C174.794 332.546 183.488 328.556 187.82 320.958L201.815 296.472C202.745 294.847 202.991 292.92 202.499 291.113C202.008 289.307 200.819 287.77 199.194 286.84C198.255 286.3 197.93 285.101 198.468 284.161L212.379 259.855C216.217 253.146 213.892 244.596 207.185 240.755Z" fill="#8FAFB8"/>
<path d="M342.125 126.042C342.125 126.042 293.455 191.64 290.929 195.94C288.403 200.24 291.713 212.483 279.899 214.622C268.085 216.762 275.393 229.534 266.036 229.788C256.679 230.042 248.201 235.396 246.814 238.695C245.426 241.994 238.987 241.088 265.533 213.087C292.078 185.085 347.251 113.253 342.125 126.042Z" fill="white"/>
<path d="M271.623 215.871C269.409 219.165 267.969 229.375 256.573 226.584C255.58 226.335 254.546 226.302 253.539 226.489C251.179 229.26 249.001 232.182 247.021 235.237C247.065 236.006 247.263 236.759 247.603 237.45C250.251 234.204 257.786 230.036 266.036 229.798C275.393 229.544 268.091 216.772 279.899 214.632C291.708 212.493 288.398 200.261 290.93 195.95C293.275 191.942 335.501 134.964 341.426 126.984C347.352 119.003 287.599 189.871 286.174 203.56C284.75 217.248 273.836 212.583 271.623 215.871Z" fill="#D8D8D8"/>
<path fill-rule="evenodd" clip-rule="evenodd" d="M342.125 126.042C342.125 126.042 293.455 191.64 290.929 195.94C288.403 200.24 291.713 212.483 279.899 214.622C268.085 216.762 275.393 229.534 266.036 229.788C256.679 230.042 248.201 235.396 246.814 238.695C245.426 241.994 238.987 241.088 265.533 213.087C292.078 185.085 347.251 113.253 342.125 126.042Z" stroke="#191919" stroke-width="0.510413"/>
<path d="M338.35 125.655C338.35 125.655 267.111 213.775 263.013 200.982C258.914 188.188 244.024 200.293 251.194 210.72C258.364 221.146 238.728 209.491 235.106 219.219C231.484 228.947 244.156 229.243 240.672 234.104C237.187 238.965 239.973 246.056 247.217 240.242C254.461 234.427 339.52 126.921 339.52 126.921L338.35 125.655Z" fill="white"/>
<path d="M259.959 204.704C257.746 214.378 271.609 198.667 271.609 198.667C266.949 202.21 263.751 203.433 262.972 200.986C261.092 195.162 256.994 194.5 253.753 196.485C255.956 197.296 261.421 198.333 259.959 204.704Z" fill="#D8D8D8"/>
<path d="M338.884 126.238L335.616 130.803C335.616 130.803 301.276 171.8 272.21 207.236C243.144 242.673 245.505 231.558 248.185 226.575C250.864 221.592 237.112 225.939 237.493 219.929C237.631 217.721 238.907 216.222 240.469 215.19C238.097 215.582 236.048 216.662 235.1 219.209C231.483 228.931 244.15 229.233 240.665 234.094C237.181 238.955 239.966 246.046 247.21 240.231C254.454 234.417 339.514 126.911 339.514 126.911L338.884 126.238Z" fill="#D8D8D8"/>
<path d="M311.377 162.262C327.099 142.568 339.49 126.904 339.49 126.904L338.346 125.655C338.346 125.655 304.615 167.377 282.216 189.236C280.998 190.429 279.815 191.557 278.668 192.62C270.285 200.399 264.1 204.492 262.967 200.981C258.837 188.188 243.978 200.293 251.148 210.719C258.318 221.146 238.682 209.491 235.06 219.218C231.438 228.946 244.11 229.243 240.626 234.104C237.141 238.965 239.927 246.055 247.171 240.241C248.712 239.007 253.785 233.151 260.817 224.704" stroke="#191919" stroke-width="0.510413" stroke-linecap="round"/>
<path d="M282.565 198.137C290.302 188.568 298.452 178.422 306.087 168.87" stroke="#191919" stroke-width="0.510413" stroke-linecap="round"/>
<path d="M277.229 204.714C278.192 203.535 279.161 202.342 280.136 201.135" stroke="#191919" stroke-width="0.510413" stroke-linecap="round"/>
<path d="M271.875 211.291L274.581 207.977" stroke="#191919" stroke-width="0.510413" stroke-linecap="round"/>
<path d="M124.94 271.917C124.94 271.917 75.7194 319.915 74.3426 308.455C74.9357 295.927 61.0671 293.125 59.2932 302.985C57.5192 312.845 45.4246 288.953 32.1333 298.103C18.842 307.253 40.9871 313.385 29.7716 320.344C18.556 327.302 8.83372 347.975 40.4099 348.123C71.9862 348.271 116.663 348.123 116.663 348.123C116.663 348.123 113.512 339.221 105.739 339.513C97.9652 339.804 80.9512 333.121 123.049 289.445C135.822 276.953 124.94 271.917 124.94 271.917V271.917Z" fill="white"/>
<path d="M88.2194 325.661C84.0837 344.433 69.4791 318.777 59.4444 325.698C49.4097 332.619 24.0873 349.829 23.1024 326.476C16.2925 335.319 15.6889 348.007 40.4129 348.124C71.9838 348.272 116.666 348.124 116.666 348.124C116.666 348.124 113.515 339.222 105.742 339.513C98.2541 339.799 82.1933 333.593 118.684 294.084L118.922 286.226C118.922 286.226 92.3498 306.883 88.2194 325.661Z" fill="#D8D8D8"/>
<path d="M91.3496 344.66C92.012 345.944 92.8496 347.129 93.8384 348.182" stroke="white" stroke-width="0.459832"/>
<path d="M274.711 344.295C276.552 344.19 278.201 343.121 279.048 341.483C281.801 336.098 295.315 338.385 293.022 348.124" stroke="#191919" stroke-width="0.459832"/>
<path d="M268.959 340.006C268.978 340.708 269.181 341.392 269.547 341.992" stroke="#191919" stroke-width="0.459832"/>
<path d="M259.448 309.245C259.448 309.245 251.039 321.785 259.003 324.956C266.967 328.128 272.655 330.781 269.557 337.427" stroke="#191919" stroke-width="0.459832"/>
<path d="M117.126 291.024C117.126 291.024 85.0674 319.449 89.6903 340.006" stroke="white" stroke-width="0.459832"/>
<path d="M66.9302 317.358C66.2316 316.333 65.6808 315.216 65.2939 314.038" stroke="#D8D8D8" stroke-width="0.459832"/>
<path d="M116.86 284.632C116.86 284.632 95.5993 303.515 87.4338 312.761C81.2594 319.756 73.7877 322.864 68.9795 319.454" stroke="#D8D8D8" stroke-width="0.459832"/>
<path d="M25.8645 323.41C16.8253 331.999 12.6261 347.991 40.4108 348.123C71.9818 348.272 116.664 348.123 116.664 348.123C116.664 348.123 113.513 339.222 105.74 339.513C97.9661 339.804 80.9521 333.122 123.05 289.446C135.838 276.954 124.957 271.918 124.957 271.918" stroke="#191919" stroke-width="0.459832"/>
<path d="M32.1336 298.104C18.8529 307.249 40.9875 313.386 29.7719 320.344" stroke="#191919" stroke-width="0.459832"/>
<path d="M325.169 348.796C331.444 344.93 337.571 341.721 341.706 343.844C347.166 346.646 337.354 351.788 340.822 352.624" stroke="#D8D8D8" stroke-width="0.459832"/>
<path d="M321.726 350.946L323.552 349.797" stroke="#D8D8D8" stroke-width="0.459832"/>
<path d="M291.606 338.64C303.653 334.933 309.256 337.644 306.349 343.935C303.442 350.226 309.071 355.86 315.939 353.996C317.059 353.679 318.129 353.205 319.116 352.588" stroke="#D8D8D8" stroke-width="0.459832"/>
<path d="M452.205 347.014C452.867 348.298 453.705 349.483 454.694 350.536" stroke="white" stroke-width="0.459832"/>
<path d="M482.729 357.28C484.57 357.175 486.218 356.106 487.065 354.468C489.819 349.083 503.333 351.37 501.04 361.108" stroke="#191919" stroke-width="0.459832"/>
<path d="M476.977 352.991C476.996 353.693 477.199 354.377 477.564 354.976" stroke="#191919" stroke-width="0.459832"/>
<path d="M467.465 322.23C467.465 322.23 459.056 334.769 467.021 337.941C474.985 341.113 480.672 343.766 477.574 350.412" stroke="#191919" stroke-width="0.459832"/>
<path d="M477.981 293.378C477.981 293.378 445.923 321.803 450.546 342.36" stroke="white" stroke-width="0.459832"/>
<path d="M427.786 319.712C427.087 318.687 426.536 317.57 426.149 316.392" stroke="#D8D8D8" stroke-width="0.459832"/>
<path d="M477.716 286.986C477.716 286.986 456.455 305.869 448.289 315.115C442.115 322.11 434.643 325.218 429.835 321.808" stroke="#D8D8D8" stroke-width="0.459832"/>
<path d="M386.72 325.764C377.681 334.353 373.482 350.345 401.266 350.477C432.837 350.626 477.519 350.477 477.519 350.477C477.519 350.477 474.369 341.576 466.595 341.867C458.822 342.158 441.808 335.476 483.906 291.8C496.694 279.308 485.812 274.272 485.812 274.272" stroke="#191919" stroke-width="0.459832"/>
<path d="M392.989 300.458C379.708 309.603 401.843 315.74 390.627 322.698" stroke="#191919" stroke-width="0.459832"/>
<path d="M686.024 351.15C692.299 347.285 698.426 344.076 702.562 346.199C708.021 349 698.209 354.142 701.677 354.979" stroke="#D8D8D8" stroke-width="0.459832"/>
<path d="M682.581 353.301L684.408 352.152" stroke="#D8D8D8" stroke-width="0.459832"/>
<path d="M652.462 340.994C664.509 337.287 670.111 339.999 667.204 346.289C664.297 352.58 669.926 358.215 676.794 356.351C677.914 356.034 678.984 355.56 679.971 354.942" stroke="#D8D8D8" stroke-width="0.459832"/>
<path d="M176.895 317.998C175.127 311.188 198.278 269.593 198.278 269.593C194.82 269.974 189.276 276.191 183.409 284.605L186.024 286.104L160.453 329.737L166.209 330.849C174.788 332.525 183.481 328.546 187.82 320.958L197.838 303.457C193.681 300.412 178.664 324.807 176.895 317.998Z" fill="#606B6E"/>
<path fill-rule="evenodd" clip-rule="evenodd" d="M207.183 240.755L202.946 238.34L178.191 281.646L186.022 286.131L160.451 329.765L166.207 330.877C174.792 332.547 183.486 328.557 187.818 320.959L201.813 296.473C202.743 294.848 202.989 292.92 202.498 291.114C202.006 289.307 200.817 287.77 199.192 286.841C198.253 286.3 197.928 285.101 198.467 284.161L212.377 259.855C216.215 253.146 213.89 244.597 207.183 240.755V240.755Z" stroke="#191919" stroke-width="0.459832"/>
<path d="M352.841 327.127C351.739 342.166 378.592 326.91 376.527 342.018C374.462 357.126 396.4 339.333 401.129 343.903C401.129 343.903 404.635 346.551 400.912 348.229" stroke="#D8D8D8" stroke-width="0.459832" stroke-linecap="round"/>
<path d="M429.228 348.124C431.536 343.432 424.165 344.417 417.117 348.124" stroke="#D8D8D8" stroke-width="0.459832" stroke-linecap="round"/>
<path d="M277.644 340.71L343.916 177.624L262.002 307.54L277.644 340.71Z" fill="#8FAFB8" stroke="#191919" stroke-width="0.459832"/>
<path d="M287.9 303.68C288.249 293.873 297.352 280.232 301.509 274.894C310.553 263.245 309.537 249.98 311.957 244.028C320.18 223.778 337.856 186.88 342.14 180.483C332.217 189.56 268.911 302.616 263.965 311.808L275.196 335.637L276.716 338.862C276.716 338.862 274.407 325.433 279.263 319.407C284.119 313.381 287.556 313.492 287.9 303.68Z" fill="#606B6E"/>
<path fill-rule="evenodd" clip-rule="evenodd" d="M277.642 340.71L343.914 177.624L262 307.54L277.642 340.71Z" stroke="#191919" stroke-width="0.510413"/>
<path d="M344.45 176.008L246.697 297.923L255.721 343.262L344.45 176.008Z" fill="#8FAFB8"/>
<path d="M344.45 176.008L241.905 271.288L244.961 289.191L344.45 176.008Z" fill="white"/>
<path d="M244.96 289.191L247.83 296.472L344.449 176.008L277.278 252.441L267.629 263.413C254.725 278.092 245.315 288.794 244.96 289.191Z" fill="#606B6E"/>
<path d="M344.448 176.009L241.903 271.288L244.959 289.192" fill="#8FAFB8"/>
<path d="M344.448 176.009L241.903 271.288L244.959 289.192" stroke="#191919" stroke-width="0.510413"/>
<path d="M281.155 248.03L277.278 252.441" stroke="#191919" stroke-width="0.510413" stroke-linecap="round"/>
<path d="M287.313 241.019C286.556 241.887 285.793 242.751 285.036 243.608" stroke="#191919" stroke-width="0.510413" stroke-linecap="round"/>
<path d="M344.45 176.008L289.908 238.049" stroke="#191919" stroke-width="0.510413" stroke-linecap="round"/>
<path d="M262.573 269.164C252.337 280.813 245.268 288.846 244.961 289.191L247.831 296.472" stroke="#191919" stroke-width="0.510413" stroke-linecap="round"/>
<path d="M267.632 263.413L265.323 266.061" stroke="#191919" stroke-width="0.510413" stroke-linecap="round"/>
<path d="M275.911 261.486L344.449 176.008L255.72 343.262L246.696 297.923L270.748 267.925" stroke="#191919" stroke-width="0.510413"/>
<path d="M196.523 175.931C199.03 172.342 197.597 167.012 193.321 164.026C189.046 161.04 183.549 161.53 181.042 165.119C178.535 168.708 179.969 174.039 184.244 177.024C188.519 180.01 194.017 179.52 196.523 175.931Z" fill="#191919" stroke="#191919" stroke-width="0.510413"/>
<path d="M191.814 172.641C192.795 171.236 192.234 169.15 190.56 167.981C188.887 166.812 186.735 167.004 185.753 168.409C184.772 169.814 185.333 171.9 187.007 173.069C188.68 174.238 190.833 174.046 191.814 172.641Z" fill="white" stroke="#191919" stroke-width="0.510413"/>
<path d="M189.889 171.243C189.306 172.084 188.192 172.367 187.278 171.904L180.008 168.198L183.715 162.902L189.64 168.627C190.347 169.323 190.452 170.426 189.889 171.243Z" fill="#8FAFB8"/>
<path d="M190.259 170.13C190.121 170.406 189.571 171.804 187.045 170.13C183.936 168.065 182.279 167.716 179.806 169.22C179.504 169.4 181.458 168.637 181.464 168.928L187.288 171.91C188.202 172.372 189.316 172.089 189.899 171.248C190.127 170.919 190.252 170.53 190.259 170.13Z" fill="#606B6E"/>
<path fill-rule="evenodd" clip-rule="evenodd" d="M189.889 171.243C189.306 172.084 188.192 172.367 187.278 171.904L180.008 168.198L183.715 162.902L189.64 168.627C190.347 169.323 190.452 170.426 189.889 171.243V171.243Z" stroke="#191919" stroke-width="0.510413"/>
<path d="M189.187 170.813C189.42 170.48 189.286 169.985 188.888 169.707C188.49 169.429 187.978 169.473 187.746 169.807C187.513 170.14 187.647 170.635 188.045 170.913C188.443 171.191 188.954 171.147 189.187 170.813Z" fill="#191919" stroke="#191919" stroke-width="0.510413"/>
<path d="M179.827 164.305C178.149 166.765 177.464 169.77 177.91 172.714C179.952 173.267 182.122 172.479 183.333 170.744L187.331 165.025C188.471 163.383 188.533 161.223 187.49 159.518C184.405 160.043 181.651 161.763 179.827 164.305Z" fill="#8FAFB8"/>
<path d="M179.519 170.973C178.212 170.348 180.097 165.19 180.097 165.19C180.006 164.963 179.807 164.798 179.567 164.75C178.09 167.133 177.508 169.964 177.926 172.736C179.968 173.289 182.137 172.501 183.348 170.766L184.714 168.817C183.422 167.981 180.706 171.502 179.519 170.973Z" fill="#606B6E"/>
<path d="M186.069 166.827L187.329 165.026C188.469 163.384 188.531 161.224 187.488 159.519C184.463 159.99 181.752 161.648 179.954 164.125C178.156 166.602 177.419 169.694 177.908 172.715C179.951 173.268 182.12 172.48 183.331 170.745L184.665 168.834" stroke="#191919" stroke-width="0.510413" stroke-linecap="round"/>
<path d="M179.793 165.111C181.282 165.111 182.488 163.904 182.488 162.416C182.488 160.927 181.282 159.72 179.793 159.72C178.304 159.72 177.098 160.927 177.098 162.416C177.098 163.904 178.304 165.111 179.793 165.111Z" fill="#191919" stroke="#191919" stroke-width="0.510413"/>
<path d="M164.131 176.898L247.416 91.8281L162.844 152.132L164.131 176.898Z" fill="#8FAFB8" stroke="#191919" stroke-width="0.510413"/>
<path d="M180.048 156.358C182.781 150.31 191.974 144.11 195.934 141.833C204.576 136.871 207.346 128.303 210.385 125.195C220.722 114.63 241.247 96.0701 245.557 93.1523C237.026 96.3084 168.425 150.808 162.981 155.277L163.903 173.059L164.03 175.469C164.03 175.469 166.026 166.467 170.612 163.946C175.198 161.425 177.311 162.41 180.048 156.358Z" fill="#606B6E"/>
<path fill-rule="evenodd" clip-rule="evenodd" d="M164.131 176.898L247.416 91.8281L162.844 152.132L164.131 176.898Z" stroke="#191919" stroke-width="0.510413"/>
<path d="M248.156 90.9541L155.731 142.192L149.758 172.879L248.156 90.9541Z" fill="#8FAFB8"/>
<path d="M248.158 90.9541L159.562 124.294L156.888 136.277L248.158 90.9541Z" fill="white"/>
<path d="M156.89 136.277L156.811 141.572L248.187 90.9541L186.533 121.567L177.685 125.962C165.844 131.84 157.213 136.124 156.89 136.277Z" fill="#606B6E"/>
<path d="M248.157 90.9556L158.628 122.495L156.886 136.279" fill="#8FAFB8"/>
<path d="M248.157 90.9556L158.628 122.495L156.886 136.279" stroke="#191919" stroke-width="0.510413"/>
<path d="M190.087 119.803L186.528 121.567" stroke="#191919" stroke-width="0.510413" stroke-linecap="round"/>
<path d="M195.76 116.992L193.642 118.019" stroke="#191919" stroke-width="0.510413" stroke-linecap="round"/>
<path d="M248.183 90.9546C248.183 90.9546 222.342 103.796 198.152 115.806" stroke="#191919" stroke-width="0.510413" stroke-linecap="round"/>
<path d="M173.042 128.266C163.648 132.931 157.156 136.145 156.886 136.278L156.807 141.573" stroke="#191919" stroke-width="0.510413" stroke-linecap="round"/>
<path d="M177.681 125.962L175.562 127.021" stroke="#191919" stroke-width="0.510413" stroke-linecap="round"/>
<path d="M183.354 126.878L248.158 90.9546L149.76 172.879L155.733 142.192L178.476 129.584" stroke="#191919" stroke-width="0.510413"/>
<path d="M374.317 84.9551L334.172 109.414L333.977 115.509L374.317 84.9551Z" fill="white"/>
<path d="M354.895 130.066C354.534 130.549 353.873 130.693 353.344 130.405L349.145 128.08L351.422 125.035L354.8 128.509C355.206 128.936 355.246 129.592 354.895 130.066Z" fill="#8FAFB8"/>
<path fill-rule="evenodd" clip-rule="evenodd" d="M354.895 130.066C354.534 130.549 353.873 130.693 353.344 130.405L349.145 128.08L351.422 125.035L354.8 128.509C355.206 128.936 355.246 129.592 354.895 130.066V130.066Z" stroke="#191919" stroke-width="0.510413"/>
<path d="M355.151 129.415C355.066 129.579 354.711 130.389 353.26 129.356C351.476 128.085 350.512 127.847 349.024 128.684C348.844 128.784 350.004 128.371 350.004 128.541L353.361 130.405C353.89 130.693 354.551 130.549 354.912 130.066C355.052 129.876 355.135 129.65 355.151 129.415Z" fill="#606B6E"/>
<path d="M348.797 129.7C348.039 129.308 349.247 126.311 349.247 126.311C349.193 126.173 349.074 126.072 348.929 126.041C348.019 127.416 347.625 129.069 347.817 130.706C349.008 131.066 350.296 130.643 351.042 129.647L351.879 128.525C351.158 128.027 349.496 130.055 348.797 129.7Z" fill="#606B6E"/>
<path d="M341.263 134.658L374.031 85.4478L338.346 122.695L341.263 134.658Z" fill="#8FAFB8" stroke="#191919" stroke-width="0.510413"/>
<path d="M333.971 115.509L334.421 118.104L374.316 84.9551L347.077 105.607C345.716 106.64 344.429 107.635 343.163 108.567L333.971 115.509Z" fill="#606B6E"/>
<path fill-rule="evenodd" clip-rule="evenodd" d="M341.212 134.964L373.979 85.7544L338.294 123.002L341.212 134.964Z" stroke="#191919" stroke-width="0.510413"/>
<path d="M358.668 133.261C360.208 131.199 359.466 128.04 357.011 126.206C354.555 124.372 351.316 124.556 349.776 126.618C348.236 128.68 348.978 131.839 351.433 133.673C353.889 135.507 357.128 135.323 358.668 133.261Z" fill="#191919" stroke="#191919" stroke-width="0.510413"/>
<path d="M355.962 131.239C356.565 130.433 356.274 129.198 355.313 128.48C354.353 127.763 353.086 127.834 352.484 128.64C351.882 129.446 352.172 130.681 353.133 131.399C354.094 132.117 355.36 132.045 355.962 131.239Z" fill="white" stroke="#191919" stroke-width="0.510413"/>
<path d="M354.449 130.115C354.593 129.922 354.525 129.629 354.297 129.459C354.07 129.29 353.77 129.308 353.626 129.5C353.483 129.692 353.55 129.985 353.778 130.155C354.005 130.325 354.306 130.307 354.449 130.115Z" fill="#191919" stroke="#191919" stroke-width="0.510413"/>
<path d="M349.059 126.11C348.02 127.529 347.56 129.29 347.772 131.035C348.963 131.395 350.251 130.972 350.997 129.976L353.454 126.688C354.153 125.745 354.23 124.478 353.65 123.458C351.829 123.7 350.178 124.654 349.059 126.11Z" fill="#8FAFB8"/>
<path d="M352.676 127.704L353.455 126.671C354.153 125.728 354.23 124.462 353.65 123.441C351.861 123.661 350.233 124.587 349.13 126.013C348.026 127.439 347.537 129.247 347.773 131.034C348.963 131.394 350.252 130.971 350.998 129.975L351.818 128.874" stroke="#191919" stroke-width="0.510413" stroke-linecap="round"/>
<path d="M349.075 126.576C349.95 126.576 350.659 125.867 350.659 124.992C350.659 124.118 349.95 123.409 349.075 123.409C348.201 123.409 347.492 124.118 347.492 124.992C347.492 125.867 348.201 126.576 349.075 126.576Z" fill="#191919" stroke="#191919" stroke-width="0.510413"/>
<path d="M347.081 123.473C347.854 120.296 351.762 116.393 353.488 114.91C357.248 111.691 357.809 107.253 359 105.458C363.067 99.3473 371.365 88.3965 373.197 86.5537C369.321 88.8731 340.896 121.821 338.65 124.506L340.769 133.095L341.054 134.26C341.054 134.26 341.192 129.684 343.173 128.027C345.153 126.37 346.302 126.677 347.081 123.473Z" fill="#606B6E"/>
<path d="M374.26 85.2622L333.904 118.808L333.824 134.334L374.26 85.2622Z" fill="#8FAFB8"/>
<path d="M374.256 85.2612L334.112 109.72L333.916 115.815" fill="#8FAFB8"/>
<path d="M374.256 85.2612L334.112 109.72L333.916 115.815" stroke="#191919" stroke-width="0.510413"/>
<path d="M348.593 104.706L347.004 105.898" stroke="#191919" stroke-width="0.510413" stroke-linecap="round"/>
<path d="M351.091 102.81L350.17 103.498" stroke="#191919" stroke-width="0.510413" stroke-linecap="round"/>
<path d="M374.259 85.2612L352.151 102.01" stroke="#191919" stroke-width="0.510413" stroke-linecap="round"/>
<path d="M341.057 110.414L333.914 115.815L334.364 118.41" stroke="#191919" stroke-width="0.510413" stroke-linecap="round"/>
<path d="M343.107 108.857L342.175 109.567" stroke="#191919" stroke-width="0.510413" stroke-linecap="round"/>
<path d="M345.966 108.783L374.26 85.2612L333.824 134.333L333.904 118.807L343.832 110.552" stroke="#191919" stroke-width="0.510413"/>
<path d="M120.048 362.049L249.864 140.263L104.379 310.858L120.048 362.049Z" fill="#8FAFB8" stroke="#191919" stroke-width="0.510413"/>
<path d="M174.983 296.589C177.541 282.487 193.517 264.69 200.655 257.838C216.155 242.921 217.463 223.524 222.197 215.427C238.305 187.891 271.555 138.274 279.048 129.891C262.817 140.932 147.723 291.055 138.684 303.266L149.936 340.022L151.461 344.999C151.461 344.999 150.932 325.11 159.208 317.421C167.485 309.732 172.431 310.691 174.983 296.589Z" fill="#606B6E"/>
<path fill-rule="evenodd" clip-rule="evenodd" d="M152.418 347.943L282.234 126.158L136.749 296.753L152.418 347.943Z" stroke="#191919" stroke-width="0.510413"/>
<path d="M283.335 123.934L116.647 279.665L119.486 347.726L283.335 123.934Z" fill="#8EA6B6" fill-opacity="0.96"/>
<path d="M283.335 123.934L115.165 240.331L115.959 266.686L283.335 123.934Z" fill="white"/>
<path d="M115.963 266.686L118.584 277.838L283.339 123.934C283.339 123.934 219.201 178.656 170.346 220.336L154.116 234.183C132.389 252.691 116.561 266.189 115.963 266.686Z" fill="#606B6E"/>
<path d="M283.333 123.934L115.163 240.331L115.957 266.686" fill="#8FAFB8"/>
<path d="M283.333 123.934L115.163 240.331L115.957 266.686" stroke="#191919" stroke-width="0.510413"/>
<path d="M176.844 214.775L170.341 220.336" stroke="#191919" stroke-width="0.510413" stroke-linecap="round"/>
<path d="M187.211 205.921L183.383 209.189" stroke="#191919" stroke-width="0.510413" stroke-linecap="round"/>
<path d="M283.335 123.933L191.604 202.214" stroke="#191919" stroke-width="0.510413" stroke-linecap="round"/>
<path d="M145.591 241.432C128.365 256.121 116.466 266.256 115.937 266.685L118.558 277.837" stroke="#191919" stroke-width="0.510413" stroke-linecap="round"/>
<path d="M154.095 234.182L150.219 237.486" stroke="#191919" stroke-width="0.510413" stroke-linecap="round"/>
<path d="M166.459 233.123L283.333 123.933L119.484 347.726L116.646 279.664L157.658 241.347" stroke="#191919" stroke-width="0.510413"/>
<path d="M295.885 348.123H301.175H295.885Z" fill="#CECCCC"/>
<path d="M295.885 348.123H301.175" stroke="#191919" stroke-width="0.510413" stroke-linecap="round"/>
<path d="M281.405 348.123H287.797H281.405Z" fill="#CECCCC"/>
<path d="M281.405 348.123H287.797" stroke="#191919" stroke-width="0.510413" stroke-linecap="round"/>
<path d="M85.1621 348.123H276.584H85.1621Z" fill="#CECCCC"/>
<path d="M85.1621 348.123H276.584" stroke="#191919" stroke-width="0.510413" stroke-linecap="round"/>
<path d="M344.445 348.123H454.266H344.445Z" fill="#CECCCC"/>
<path d="M344.445 348.123H454.266" stroke="#191919" stroke-width="0.510413" stroke-linecap="round"/>
<path d="M332.285 348.123H336.659H332.285Z" fill="#CECCCC"/>
<path d="M332.285 348.123H336.659" stroke="#191919" stroke-width="0.510413" stroke-linecap="round"/>
<path d="M201.14 307.201C201.14 307.201 205.026 303.611 206.965 304.204C208.903 304.797 204.407 305.729 205.095 306.957C205.784 308.186 199.074 309.515 201.14 307.201Z" fill="white"/>
<path d="M208.866 302.996C208.866 302.996 211.566 302.138 211.614 303.414C211.662 304.69 206.88 304.299 208.866 302.996Z" fill="white"/>
<path d="M37.0922 314.63C37.0922 314.63 39.3057 322.891 31.5586 325.105" stroke="#D8D8D8" stroke-width="0.510413" stroke-linecap="round"/>
<path d="M33.0784 276.747C32.4892 275.906 31.9804 275.01 31.5586 274.073" stroke="#D8D8D8" stroke-width="0.510413" stroke-linecap="round"/>
<path d="M52.5828 276.742C44.7934 280.677 39.4451 281.847 35.6377 279.3" stroke="#D8D8D8" stroke-width="0.510413" stroke-linecap="round"/>
<path d="M117.698 274.073C117.698 274.073 88.0171 299.004 80.2488 296.239C72.4805 293.475 77.8871 261.963 61.1855 271.918" stroke="#D8D8D8" stroke-width="0.510413" stroke-linecap="round"/>
<path d="M199.013 279.41C199.013 279.41 207.814 277.054 209.074 292.792" stroke="#D8D8D8" stroke-width="0.510413" stroke-linecap="round"/>
<path d="M74.1533 247.66C81.5933 246.357 88.0854 246.071 88.3131 252.262" stroke="#D8D8D8" stroke-width="0.510413" stroke-linecap="round"/>
<path d="M89.4578 194.903C89.4578 194.903 59.3431 216.852 52.5809 240.067C49.0542 252.183 58.7818 250.631 68.9965 248.645" stroke="#D8D8D8" stroke-width="0.510413" stroke-linecap="round"/>
<path d="M46.9632 237.487C46.5904 238.434 46.2791 239.403 46.0312 240.389" stroke="#D8D8D8" stroke-width="0.510413" stroke-linecap="round"/>
<path d="M65.2964 213.706C65.2964 213.706 53.276 224.296 47.9912 235.152" stroke="#D8D8D8" stroke-width="0.510413" stroke-linecap="round"/>
<path d="M247.022 217.921C249.315 218.075 251.513 218.79 251.015 221.099C250.03 225.621 251.206 230.196 270.608 206.219C277.492 197.709 283.1 191.069 287.352 186.17" stroke="#D8D8D8" stroke-width="0.510413" stroke-linecap="round"/>
<path d="M242.454 218.165C243.284 218.036 244.12 217.951 244.959 217.911" stroke="#D8D8D8" stroke-width="0.510413" stroke-linecap="round"/>
<path d="M254.157 201.686C254.157 201.686 258.584 199.79 256.127 207.055C253.67 214.321 255.868 218.557 262 212.208C268.132 205.859 276.096 197.232 276.096 197.232" stroke="#D8D8D8" stroke-width="0.510413" stroke-linecap="round"/>
<mask id="mask1_236_3762" style="mask-type:luminance" maskUnits="userSpaceOnUse" x="380" y="233" width="45" height="89">
<path fill-rule="evenodd" clip-rule="evenodd" d="M412.481 293.476C411.358 289.92 410.746 286.222 410.665 282.493C410.517 262.281 418.777 233.336 418.777 233.336C418.777 233.336 378.284 253.872 380.889 288.53C380.889 288.53 389.626 306.577 409.405 321.663C409.906 320.163 410.644 318.752 411.592 317.485C411.973 318.746 412.539 319.943 413.27 321.038C417.893 319.015 424.544 307.307 424.544 307.307C424.544 307.307 416.331 304.638 412.481 293.476Z" fill="white"/>
</mask>
<g mask="url(#mask1_236_3762)">
<path d="M412.481 293.476C411.358 289.92 410.746 286.222 410.665 282.493C410.517 262.281 418.777 233.336 418.777 233.336C418.777 233.336 378.284 253.872 380.889 288.53C380.889 288.53 389.626 306.577 409.405 321.663C409.906 320.163 410.644 318.752 411.592 317.485C411.973 318.746 412.539 319.943 413.27 321.038C417.893 319.015 424.544 307.307 424.544 307.307C424.544 307.307 416.331 304.638 412.481 293.476Z" fill="#4A5C68"/>
<g opacity="0.43">
<path d="M409.924 242.726C409.924 242.726 392.396 298.856 423.231 311.941" stroke="#191919" stroke-width="0.510413"/>
<path d="M401.414 242.042C401.414 242.042 387.614 299.915 417.009 314.059" stroke="#191919" stroke-width="0.510413"/>
<path d="M391.22 252.093C391.22 252.093 384.5 309.183 415.123 318.402" stroke="#191919" stroke-width="0.510413"/>
</g>
</g>
<path fill-rule="evenodd" clip-rule="evenodd" d="M412.482 293.476C411.359 289.92 410.747 286.222 410.666 282.493C410.518 262.281 418.778 233.336 418.778 233.336C418.778 233.336 378.285 253.872 380.89 288.53C380.89 288.53 389.627 306.577 409.406 321.663C409.907 320.163 410.645 318.752 411.593 317.485C411.974 318.746 412.54 319.943 413.271 321.038C417.894 319.015 424.545 307.307 424.545 307.307C424.545 307.307 416.332 304.638 412.482 293.476V293.476Z" stroke="#191919" stroke-width="0.510413" stroke-linecap="round"/>
<path d="M424.83 307.429C424.099 306.804 422.023 307.715 419.604 309.462C420.498 311.051 421.415 312.592 422.331 314.064C424.454 310.897 425.698 308.176 424.83 307.429Z" fill="#191919" stroke="#191919" stroke-width="0.510413" stroke-linecap="round"/>
<path d="M417.757 237.165C417.757 237.165 407.42 256.557 408.305 267.322C409.189 278.088 393.065 282.679 397.714 290.182C402.363 297.686 395.178 306.36 396.861 310.442C391.137 303.929 387.468 299.036 385.037 293.137C382.606 287.238 387.219 237.102 417.757 237.165Z" fill="#191919" stroke="#191919" stroke-width="0.510413" stroke-linecap="round"/>
<path d="M422.332 314.064C421.416 312.592 420.5 311.051 419.605 309.462C417.298 311.16 415.191 313.114 413.325 315.287C411.122 317.861 409.893 320.053 409.406 321.684C410.589 322.584 411.81 323.467 413.071 324.332C417.018 327.074 421.161 329.524 425.467 331.661C424.434 343.173 422.073 347.155 422.962 347.017C423.852 346.879 431.123 335.41 432.796 330.601C432.176 328.388 427.331 322.15 422.332 314.064Z" fill="#F5F5F5" stroke="#191919" stroke-width="0.510413" stroke-linecap="round"/>
<path d="M365.74 324.873C366.9 335.569 368.621 341.818 368.621 341.818C368.621 341.818 360.805 345.212 355.346 346.536C355.346 348.162 372.291 347.595 373.641 347.595C374.981 339.986 376.628 332.62 378.492 325.54C374.213 326.62 369.686 326.059 365.74 324.873V324.873Z" fill="#F5F5F5" stroke="#191919" stroke-width="0.510413" stroke-linecap="round"/>
<mask id="mask2_236_3762" style="mask-type:luminance" maskUnits="userSpaceOnUse" x="356" y="208" width="63" height="119">
<path fill-rule="evenodd" clip-rule="evenodd" d="M381.133 226.977C393.55 180.982 418.783 235.37 418.783 235.37C418.783 235.37 394.117 269.954 379.83 320.578C379.369 322.204 378.925 323.845 378.485 325.508C374.249 326.62 369.69 326.038 365.734 324.873C362.291 323.861 359.03 322.308 356.075 320.271C356.223 316.135 357.134 274.678 380.275 230.409C380.632 229.284 380.919 228.138 381.133 226.977Z" fill="white"/>
</mask>
<g mask="url(#mask2_236_3762)">
<path d="M381.133 226.977C393.55 180.982 418.783 235.37 418.783 235.37C418.783 235.37 394.117 269.954 379.83 320.578C379.369 322.204 378.925 323.845 378.485 325.508C374.249 326.62 369.69 326.038 365.734 324.873C362.291 323.861 359.03 322.308 356.075 320.271C356.223 316.135 357.134 274.678 380.275 230.409C380.632 229.284 380.919 228.138 381.133 226.977Z" fill="#4A5C68"/>
<g opacity="0.43">
<path d="M388.099 223.583C388.099 223.583 360.172 267.879 361.273 337.147" stroke="#191919" stroke-width="0.510413"/>
<path d="M396.311 224.128C396.311 224.128 366.736 267.349 365.243 336.607" stroke="#191919" stroke-width="0.510413"/>
<path d="M407.666 225.373C407.666 225.373 375.1 266.396 368.682 335.358" stroke="#191919" stroke-width="0.510413"/>
<path d="M419.601 228.497C419.601 228.497 384.281 267.185 373.161 335.537" stroke="#191919" stroke-width="0.510413"/>
</g>
</g>
<path fill-rule="evenodd" clip-rule="evenodd" d="M381.129 226.976C393.547 180.981 418.779 235.369 418.779 235.369C418.779 235.369 394.113 269.953 379.826 320.577C379.366 322.203 378.921 323.844 378.481 325.507C374.245 326.619 369.686 326.037 365.73 324.872C362.287 323.86 359.026 322.307 356.071 320.27C356.22 316.134 357.13 274.677 380.271 230.408C380.629 229.283 380.915 228.137 381.129 226.976V226.976Z" stroke="#191919" stroke-width="0.510413" stroke-linecap="round"/>
<mask id="mask3_236_3762" style="mask-type:luminance" maskUnits="userSpaceOnUse" x="372" y="175" width="32" height="39">
<path fill-rule="evenodd" clip-rule="evenodd" d="M403.048 186.768C398.939 186.471 390.97 195.092 386.469 189.633C384.133 186.8 384.88 182.749 386.31 179.291C386.168 179.313 386.025 179.328 385.881 179.333L386.172 178.618L376.286 175.325C376.286 175.325 367.813 187.557 376.169 202.903L376.291 203.131L376.418 203.369C379.992 209.755 386.977 212.927 386.977 212.927C394.618 215.283 407.163 187.065 403.048 186.768Z" fill="white"/>
</mask>
<g mask="url(#mask3_236_3762)">
<path d="M403.048 186.768C398.939 186.471 390.97 195.092 386.469 189.633C384.133 186.8 384.88 182.749 386.31 179.291C386.168 179.313 386.025 179.328 385.881 179.333L386.172 178.618L376.286 175.325C376.286 175.325 367.813 187.557 376.169 202.903L376.291 203.131L376.418 203.369C379.992 209.755 386.977 212.927 386.977 212.927C394.618 215.283 407.163 187.065 403.048 186.768Z" fill="#587987"/>
<path d="M383.593 179.354C383.593 179.354 378.721 192.635 387.03 194.775C393.803 196.517 397.017 189.167 403.657 190.051" stroke="white" stroke-width="0.510413" stroke-linecap="round"/>
<path d="M380.856 178.528C380.856 178.528 372.156 201.992 392.813 199.127" stroke="white" stroke-width="0.510413" stroke-linecap="round"/>
</g>
<path d="M394.288 196.03C394.288 196.03 383.936 204.058 377.11 204.502C379.011 206.944 382.284 210.693 384.99 211.084C387.696 211.476 393.155 199.964 393.155 199.964" fill="#191919"/>
<path d="M394.288 196.03C394.288 196.03 383.936 204.058 377.11 204.502C379.011 206.944 382.284 210.693 384.99 211.084C387.696 211.476 393.155 199.964 393.155 199.964" stroke="#191919" stroke-width="0.510413"/>
<path fill-rule="evenodd" clip-rule="evenodd" d="M403.048 186.769C398.939 186.472 390.97 195.093 386.469 189.634C384.133 186.801 384.88 182.75 386.31 179.292C386.168 179.314 386.025 179.329 385.881 179.334L386.172 178.619L376.286 175.326C376.286 175.326 367.813 187.558 376.169 202.904L376.291 203.132L376.418 203.37C379.992 209.756 386.977 212.928 386.977 212.928C394.618 215.284 407.163 187.065 403.048 186.769V186.769Z" stroke="#191919" stroke-width="0.510413" stroke-linecap="round"/>
<mask id="mask4_236_3762" style="mask-type:luminance" maskUnits="userSpaceOnUse" x="378" y="186" width="46" height="55">
<path fill-rule="evenodd" clip-rule="evenodd" d="M403.285 186.806C404.927 186.366 406.727 186.319 409.708 186.462C409.708 186.462 422.692 188.506 423.354 212.706C423.884 231.022 420.998 244.255 394.14 239.924C362.595 234.835 388.236 205.176 394.288 196.03C395.135 195.501 401.516 205.599 403.29 186.806" fill="white"/>
</mask>
<g mask="url(#mask4_236_3762)">
<path d="M403.285 186.806C404.927 186.366 406.727 186.319 409.708 186.462C409.708 186.462 422.692 188.506 423.354 212.706C423.884 231.022 420.998 244.255 394.14 239.924C362.595 234.835 388.236 205.176 394.288 196.03" fill="#587987"/>
<path d="M389.725 203.274C389.725 203.274 397.753 213.187 423.356 212.467C428.651 219.033 423.134 221.337 423.134 221.337C423.134 221.337 396.657 228.025 383.916 211.08C379.971 202.215 389.725 203.274 389.725 203.274Z" fill="white"/>
</g>
<path d="M382.6 174.943C379.455 174.022 376.659 174.128 376.351 175.176C376.044 176.225 378.041 177.591 380.853 178.528C381.7 177.278 382.489 176.14 383.124 175.102C382.955 175.049 382.78 174.991 382.6 174.943Z" fill="#191919" stroke="#191919" stroke-width="0.510413" stroke-linecap="round"/>
<path d="M409.692 186.46C409.692 186.46 422.676 188.504 423.338 212.704C423.867 231.021 420.807 245.223 394.123 239.922C362.579 233.653 388.219 205.174 394.272 196.029" stroke="#191919" stroke-width="0.510413" stroke-linecap="round"/>
<path d="M326.898 205.301C323.995 207.011 321.897 209.813 321.073 213.08L324.674 219.064C325.496 215.795 327.594 212.991 330.499 211.28L326.898 205.301Z" fill="#191919" stroke="#191919" stroke-width="0.510413"/>
<path d="M330.5 211.28C327.595 212.992 325.497 215.795 324.675 219.064L328.281 225.043C329.104 221.775 331.202 218.974 334.106 217.264L330.5 211.28Z" fill="white" stroke="#191919" stroke-width="0.510413"/>
<path d="M323.293 199.317C320.387 201.028 318.289 203.832 317.468 207.102L321.069 213.08C321.892 209.813 323.99 207.011 326.894 205.301L323.293 199.317Z" fill="white" stroke="#191919" stroke-width="0.510413"/>
<path d="M328.286 225.041L331.887 231.025C332.71 227.756 334.808 224.953 337.712 223.241L334.111 217.262C331.207 218.972 329.109 221.773 328.286 225.041Z" fill="#191919" stroke="#191919" stroke-width="0.510413"/>
<path d="M330.499 211.279L334.1 217.262C336.908 215.664 340.129 214.939 343.351 215.181L339.75 209.198C336.528 208.957 333.307 209.681 330.499 211.279Z" fill="#191919" stroke="#191919" stroke-width="0.510413"/>
<path d="M336.144 203.22L332.543 197.236C329.321 196.996 326.101 197.721 323.292 199.317L326.898 205.301C329.704 203.701 332.923 202.977 336.144 203.22Z" fill="#191919" stroke="#191919" stroke-width="0.510413"/>
<path d="M339.75 209.199L336.144 203.22C332.924 202.977 329.704 203.702 326.898 205.301L330.499 211.28C333.308 209.682 336.528 208.958 339.75 209.199Z" fill="white" stroke="#191919" stroke-width="0.510413"/>
<path d="M334.1 217.264L337.7 223.242C340.509 221.646 343.73 220.921 346.951 221.161L343.351 215.182C340.129 214.94 336.907 215.665 334.1 217.264Z" fill="white" stroke="#191919" stroke-width="0.510413"/>
<path d="M338.251 203.459C337.55 203.342 336.843 203.263 336.133 203.22L339.739 209.199C340.449 209.24 341.156 209.321 341.857 209.442C344.505 209.895 347.226 209.374 349.519 207.975L345.913 201.992C343.621 203.393 340.898 203.914 338.251 203.459Z" fill="#191919" stroke="#191919" stroke-width="0.510413"/>
<path d="M338.25 203.458C340.896 203.913 343.617 203.391 345.907 201.991L342.306 196.013C340.015 197.41 337.295 197.931 334.649 197.48C333.948 197.359 333.241 197.278 332.531 197.236L336.132 203.22C336.842 203.262 337.549 203.342 338.25 203.458Z" fill="white" stroke="#191919" stroke-width="0.510413"/>
<path d="M341.852 209.442C341.151 209.321 340.443 209.24 339.733 209.198L343.334 215.182C344.044 215.225 344.751 215.304 345.452 215.42C348.098 215.874 350.819 215.353 353.109 213.954L349.509 207.975C347.217 209.372 344.497 209.893 341.852 209.442Z" fill="white" stroke="#191919" stroke-width="0.510413"/>
<path d="M345.458 215.421C344.757 215.305 344.05 215.225 343.34 215.183L346.941 221.161C347.651 221.203 348.358 221.284 349.059 221.405C351.711 221.864 354.441 221.343 356.737 219.938L353.136 213.954C350.84 215.359 348.111 215.88 345.458 215.421Z" fill="#191919" stroke="#191919" stroke-width="0.510413"/>
<path d="M342.31 196.013L345.91 201.992C348.6 200.313 350.544 197.448 351.592 193.985C350.266 191.728 349.152 189.353 348.267 186.889C347.208 190.358 345 194.334 342.31 196.013H342.31Z" fill="#191919" stroke="#191919" stroke-width="0.510413"/>
<path d="M349.515 207.976C352.205 206.297 354.143 203.432 355.192 199.964L351.591 193.985C350.532 197.449 348.599 200.313 345.909 201.992L349.515 207.976Z" fill="white" stroke="#191919" stroke-width="0.510413"/>
<path d="M356.738 219.938C359.428 218.259 361.567 215.019 362.615 211.55C362.25 210.941 360.63 208.961 358.813 205.948C357.754 209.411 355.827 212.276 353.137 213.954L356.738 219.938Z" fill="white" stroke="#191919" stroke-width="0.510413"/>
<path d="M353.115 213.954C355.806 212.276 357.744 209.411 358.792 205.948L355.191 199.964C354.132 203.432 352.205 206.318 349.515 207.976L353.115 213.954Z" fill="#191919" stroke="#191919" stroke-width="0.510413"/>
<path d="M347.206 184.613C351.013 192.874 359.587 208.771 375.69 226.584" stroke="#191919" stroke-width="1.53584" stroke-linecap="round"/>
<path d="M408.988 171.311C408.988 171.311 405.504 169.458 404.604 170.575C403.703 171.692 402.056 174.033 401.267 172.28C400.478 170.527 398.048 170.755 397.502 172.91C396.957 175.065 400.256 175.145 399.795 176.294C399.335 177.443 397.857 180.414 401.649 179.598C405.44 178.783 409.115 173.572 408.988 171.311Z" fill="#191919" stroke="#191919" stroke-width="0.510413"/>
<mask id="mask5_236_3762" style="mask-type:luminance" maskUnits="userSpaceOnUse" x="382" y="198" width="39" height="40">
<path fill-rule="evenodd" clip-rule="evenodd" d="M405.501 199.128C405.501 199.128 409.436 222.639 386.205 220.706V220.802C386.036 220.743 385.893 220.696 385.808 220.675C384.14 220.24 382.906 233.383 382.17 237.122C390.446 237.476 398.667 235.621 405.988 231.747C407.788 230.852 409.477 229.748 411.019 228.459C411.279 228.247 411.416 228.125 411.416 228.125H411.39C419.825 220.759 420.492 210.185 420.492 210.185C420.455 209.629 421.933 196.014 405.501 199.128Z" fill="white"/>
</mask>
<g mask="url(#mask5_236_3762)">
<path d="M405.501 199.128C405.501 199.128 409.436 222.639 386.205 220.706V220.802C386.036 220.743 385.893 220.696 385.808 220.675C384.14 220.24 382.906 233.383 382.17 237.122C390.446 237.476 398.667 235.621 405.988 231.747C407.788 230.852 409.477 229.748 411.019 228.459C411.279 228.247 411.416 228.125 411.416 228.125H411.39C419.825 220.759 420.492 210.185 420.492 210.185C420.455 209.629 421.933 196.014 405.501 199.128Z" fill="#587987"/>
</g>
<path d="M403.771 188.664C403.771 188.664 413.403 203.041 406.721 215.453C401.87 224.487 391.624 225.054 386.402 224.688" stroke="white" stroke-width="0.459832" stroke-linecap="round"/>
<path d="M407.004 186.139C407.004 186.139 418.49 203.804 409.694 218.324C404.288 227.236 391.95 228.353 385.902 228.332" stroke="white" stroke-width="0.459832" stroke-linecap="round"/>
<path d="M405.502 199.128C405.502 199.128 409.437 222.639 386.206 220.707V220.802C386.037 220.744 385.894 220.696 385.809 220.675C384.141 220.241 382.907 233.384 382.171 237.122C390.447 237.476 398.668 235.621 405.989 231.747C407.789 230.852 409.478 229.748 411.02 228.459C411.279 228.247 411.417 228.125 411.417 228.125H411.391C419.826 220.759 420.493 210.185 420.493 210.185" stroke="#191919" stroke-width="0.459832" stroke-linecap="round"/>
<path d="M381.837 237.165C382.759 237.361 384.056 235.047 385.062 231.716C383.765 231.051 382.514 230.299 381.318 229.465C380.609 233.638 380.799 236.964 381.837 237.165Z" fill="#191919" stroke="#191919" stroke-width="0.459832" stroke-linecap="round"/>
<path d="M386.205 220.706C385.829 220.68 385.453 220.643 385.066 220.595L384.404 220.515C370.636 218.789 371.483 215.474 370.827 215.914C370.17 216.353 371.42 219.303 371.42 219.303C371.42 219.303 365.849 221.548 371.605 225.059C373.226 226.367 373.083 223.698 375.148 224.434C376.037 224.752 377.388 226.764 381.317 229.48C382.513 230.314 383.764 231.066 385.061 231.731C385.32 230.863 385.564 229.925 385.77 228.94C386.528 225.371 386.66 222.205 386.205 220.706Z" fill="#F5F5F5" stroke="#191919" stroke-width="0.459832" stroke-linecap="round"/>
<path d="M404.706 173.864C404.706 173.864 396.737 182.056 403.547 184.894C402.784 188.071 400.015 196.014 401.105 196.014C402.196 196.014 410.251 191.074 410.139 186.271C410.028 181.468 409.594 169.061 404.706 173.864Z" fill="#F5F5F5" stroke="#191919" stroke-width="0.459832"/>
<path d="M407.932 172.471C407.932 172.471 405.527 175.648 406.401 178.725C407.275 181.801 408.721 176.919 409.187 177.083C410.717 177.613 409.187 183.014 410.553 182.304C411.919 181.595 411.612 180.186 412.459 181.425C413.306 182.664 416.256 182.272 416.526 179.625C416.796 176.977 414.408 178.179 415.303 176.294C416.198 174.409 414.042 171.025 407.932 172.471Z" fill="#191919" stroke="#191919" stroke-width="0.459832"/>
<path d="M407.135 184.301C406.069 184.979 404.773 185.193 403.545 184.894L407.135 184.301Z" fill="#F5F5F5"/>
<path d="M407.135 184.301C406.069 184.979 404.773 185.193 403.545 184.894" stroke="#191919" stroke-width="0.459832" stroke-linecap="round"/>
<path d="M403.546 184.894C404.774 185.193 406.07 184.979 407.136 184.301C407.438 185.439 404.489 189.093 402.402 188.945C402.974 187.118 403.546 184.894 403.546 184.894Z" fill="#191919" stroke="#191919" stroke-width="0.459832"/>
<path d="M424.124 173.699C424.303 172.732 420.087 171.14 414.707 170.142C409.327 169.144 404.82 169.118 404.641 170.084C404.462 171.05 408.678 172.643 414.058 173.641C419.438 174.639 423.944 174.665 424.124 173.699Z" fill="#1C1B1A" stroke="#191919" stroke-width="0.459832"/>
<path d="M404.606 170.104C405.194 167.075 411.67 162.632 414.699 163.22C417.728 163.808 416.161 169.204 415.573 172.222" fill="#1C1B1A"/>
<path d="M404.606 170.104C405.194 167.075 411.67 162.632 414.699 163.22C417.728 163.808 416.256 169.092 415.668 172.121" stroke="#191919" stroke-width="0.510413" stroke-linecap="round"/>
<path d="M404.606 168.24C404.741 169.102 405.359 169.811 406.195 170.061" stroke="#191919" stroke-width="0.510413" stroke-linecap="round"/>
<path d="M404.082 176.676L402.234 178.699C402.168 178.773 402.146 178.877 402.175 178.972C402.204 179.067 402.28 179.14 402.377 179.165L403.436 179.419" stroke="#191919" stroke-width="0.510413" stroke-linecap="round"/>
<path d="M388.272 171.852C390.083 168.807 384.915 167.181 384.624 171.534C384.555 172.551 383.972 173.737 383.125 175.103C382.49 176.162 381.701 177.279 380.854 178.529L381.494 178.73C383.046 179.235 384.682 179.426 386.308 179.292C386.594 178.603 386.906 177.936 387.229 177.306C388.041 175.688 389.023 174.162 390.157 172.752C391.534 171.222 389.676 171.502 388.272 171.852Z" fill="#D1CAC8"/>
<path d="M388.649 170.729C388.649 170.729 387.955 173.906 385.408 173.112L388.649 170.729Z" fill="#D1CAC8"/>
<path d="M385.261 126.873C382.577 124.838 379.19 123.965 375.856 124.447L371.694 130.055C375.027 129.574 378.413 130.446 381.099 132.475L385.261 126.873Z" fill="#191919" stroke="#191919" stroke-width="0.510413"/>
<path d="M381.098 132.475C378.411 130.444 375.022 129.573 371.689 130.055L367.526 135.663C370.86 135.178 374.25 136.05 376.936 138.083L381.098 132.475Z" fill="white" stroke="#191919" stroke-width="0.510413"/>
<path d="M389.422 121.265C386.743 119.238 383.364 118.367 380.039 118.845L375.855 124.448C379.189 123.965 382.576 124.838 385.26 126.873L389.422 121.265Z" fill="white" stroke="#191919" stroke-width="0.510413"/>
<path d="M367.532 135.664L363.37 141.272C366.704 140.787 370.093 141.659 372.78 143.691L376.942 138.084C374.256 136.051 370.866 135.179 367.532 135.664Z" fill="#191919" stroke="#191919" stroke-width="0.510413"/>
<path d="M381.098 132.475L376.936 138.083C379.479 140.073 381.372 142.775 382.374 145.846L386.541 140.259C385.542 137.18 383.647 134.47 381.098 132.475V132.475Z" fill="#191919" stroke="#191919" stroke-width="0.510413"/>
<path d="M390.704 134.636L394.867 129.028C393.865 125.956 391.97 123.253 389.423 121.265L385.261 126.873C387.808 128.86 389.704 131.564 390.704 134.636Z" fill="#191919" stroke="#191919" stroke-width="0.510413"/>
<path d="M386.543 140.26L390.705 134.657C389.705 131.585 387.809 128.881 385.262 126.894L381.1 132.475C383.649 134.47 385.544 137.181 386.543 140.26Z" fill="white" stroke="#191919" stroke-width="0.510413"/>
<path d="M376.941 138.083L372.779 143.691C375.324 145.679 377.218 148.383 378.218 151.454L382.38 145.846C381.378 142.776 379.485 140.073 376.941 138.083V138.083Z" fill="white" stroke="#191919" stroke-width="0.510413"/>
<path d="M391.282 136.674C391.129 135.985 390.936 135.304 390.705 134.636L386.543 140.259C386.774 140.929 386.966 141.612 387.12 142.303C387.71 144.923 389.228 147.24 391.394 148.827L395.556 143.22C393.386 141.627 391.868 139.301 391.282 136.674Z" fill="#191919" stroke="#191919" stroke-width="0.510413"/>
<path d="M391.282 136.674C391.872 139.294 393.39 141.611 395.556 143.198L399.718 137.612C397.552 136.024 396.035 133.707 395.444 131.088C395.291 130.391 395.099 129.703 394.867 129.028L390.705 134.636C390.936 135.304 391.129 135.984 391.282 136.674Z" fill="white" stroke="#191919" stroke-width="0.510413"/>
<path d="M387.118 142.282C386.964 141.591 386.772 140.908 386.541 140.238L382.379 145.846C382.609 146.515 382.803 147.195 382.961 147.885C383.545 150.505 385.062 152.824 387.229 154.409L391.392 148.806C389.226 147.219 387.708 144.901 387.118 142.282Z" fill="white" stroke="#191919" stroke-width="0.510413"/>
<path d="M382.962 147.885C382.804 147.196 382.61 146.515 382.38 145.846L378.218 151.454C378.45 152.122 378.645 152.803 378.8 153.493C379.385 156.113 380.902 158.431 383.068 160.017L387.23 154.409C385.063 152.824 383.546 150.506 382.962 147.885Z" fill="#191919" stroke="#191919" stroke-width="0.510413"/>
<path d="M399.716 137.612L395.554 143.22C398.127 145.068 401.516 145.772 405.122 145.428C406.592 143.457 408.183 141.58 409.888 139.809C406.272 140.132 402.279 139.444 399.716 137.612V137.612Z" fill="#191919" stroke="#191919" stroke-width="0.510413"/>
<path d="M391.392 148.806C393.965 150.654 397.354 151.358 400.96 151.009L405.122 145.406C401.516 145.751 398.127 145.046 395.554 143.198L391.392 148.806Z" fill="white" stroke="#191919" stroke-width="0.510413"/>
<path d="M383.068 160.016C385.642 161.865 389.031 162.569 392.637 162.225L396.799 156.617C393.193 156.966 389.804 156.262 387.231 154.409L383.068 160.016Z" fill="white" stroke="#191919" stroke-width="0.510413"/>
<path d="M387.231 154.409C389.805 156.263 393.194 156.967 396.8 156.617L400.962 151.01C397.356 151.359 393.967 150.655 391.394 148.807L387.231 154.409Z" fill="#191919" stroke="#191919" stroke-width="0.510413"/>
<path d="M384.477 177.163C384.171 177.161 383.887 177.002 383.725 176.742C383.564 176.481 383.548 176.156 383.683 175.881C383.789 175.669 394.337 154.816 410.197 138.967C410.542 138.621 411.102 138.619 411.449 138.965C411.796 139.31 411.797 139.87 411.452 140.217C395.788 155.87 385.372 176.469 385.266 176.675C385.116 176.974 384.811 177.162 384.477 177.163Z" fill="#191919"/>
<path d="M384.477 172.842C384.477 172.842 385.996 173.652 387.029 173.048C388.062 172.444 389.47 170.321 387.834 169.156C386.198 167.991 384.868 169.776 384.699 170.946C384.53 172.116 384.477 172.842 384.477 172.842H384.477Z" fill="#D1CAC8"/>
<path fill-rule="evenodd" clip-rule="evenodd" d="M388.272 171.852C390.083 168.807 384.915 167.181 384.624 171.534C384.555 172.551 383.972 173.737 383.125 175.103C382.49 176.162 381.701 177.279 380.854 178.529L381.494 178.73C383.046 179.235 384.682 179.426 386.308 179.292C386.594 178.603 386.906 177.936 387.229 177.306C388.041 175.688 389.023 174.162 390.157 172.752C391.534 171.222 389.676 171.502 388.272 171.852V171.852Z" stroke="#191919" stroke-width="0.510413" stroke-linecap="round"/>
<path d="M388.649 170.729C388.649 170.729 387.955 173.906 385.408 173.112" stroke="#191919" stroke-width="0.510413" stroke-linecap="round"/>
<path d="M430.256 326.126C430.256 326.126 428.54 327.842 426.941 329.78C424.367 327.927 422.503 329.092 422.36 330.469C422.196 331.994 425.108 332.142 425.108 332.142C424.049 343.649 422.074 347.191 422.964 347.043C423.853 346.895 431.124 335.436 432.797 330.628C432.596 329.881 431.209 327.599 430.256 326.126Z" fill="white"/>
<path d="M430.256 326.126C430.256 326.126 428.54 327.842 426.941 329.78C424.367 327.927 422.503 329.092 422.36 330.469C422.196 331.994 425.108 332.142 425.108 332.142C424.049 343.649 422.074 347.191 422.964 347.043C423.853 346.895 431.124 335.436 432.797 330.628C432.596 329.881 431.209 327.599 430.256 326.126Z" fill="#191919"/>
<path fill-rule="evenodd" clip-rule="evenodd" d="M430.252 326.126C430.252 326.126 428.536 327.842 426.937 329.78C424.363 327.926 422.499 329.091 422.356 330.468C422.192 331.993 425.105 332.142 425.105 332.142C424.046 343.648 422.07 347.191 422.96 347.043C423.85 346.894 431.12 335.435 432.793 330.627C432.592 329.88 431.205 327.598 430.252 326.126V326.126Z" stroke="#191919" stroke-width="0.459832"/>
<path d="M423.549 334.286C423.549 334.286 426.106 333.301 426.895 334.921" stroke="white" stroke-width="0.459832"/>
<path d="M422.869 336.499C422.869 336.499 425.427 335.514 426.216 337.134" stroke="white" stroke-width="0.459832"/>
<path d="M422.197 338.713C422.197 338.713 424.755 337.728 425.539 339.348" stroke="white" stroke-width="0.459832"/>
<path d="M370.662 341.785C370.015 337.596 366.176 337.061 365.763 339.322C365.483 340.879 366.574 341.684 367.352 342.5C364.927 343.506 359.451 345.677 355.326 346.694C355.326 348.319 372.271 347.726 373.622 347.726C373.95 345.841 374.305 343.977 374.681 342.124C374.681 342.118 372.467 341.822 370.662 341.785Z" fill="#191919"/>
<path d="M366.157 343.903C367.095 342.357 364.876 340.726 364.876 340.726" stroke="white" stroke-width="0.459832" stroke-linecap="round"/>
<path d="M362.65 341.383C362.65 341.383 364.864 342.971 363.932 344.56" stroke="white" stroke-width="0.459832" stroke-linecap="round"/>
<path d="M360.448 342.013C360.448 342.013 362.662 343.601 361.73 345.19" stroke="white" stroke-width="0.459832" stroke-linecap="round"/>
<path d="M390.6 246.05C390.6 246.05 390.557 253.427 397.738 253.427" stroke="white" stroke-width="0.459832"/>
<path d="M402.16 181.161C402.16 182.073 402.9 182.813 403.812 182.813C404.725 182.813 405.464 182.073 405.464 181.161H402.16Z" fill="white" stroke="#191919" stroke-width="0.459832"/>
</svg>
